<svg width="27" height="17" viewBox="0 0 27 17" fill="none" xmlns="http://www.w3.org/2000/svg">
<path d="M13.3652 1.1875C20.4173 1.1875 24.2427 6.13328 25.4775 8.08887L25.6904 8.43848C25.703 8.46007 25.7052 8.4768 25.7051 8.48828L25.6885 8.53906C24.6928 10.167 20.7015 15.8066 13.3652 15.8066C6.48738 15.8065 2.55024 10.8495 1.26465 8.88867L1.04297 8.53906C1.02937 8.51684 1.02554 8.4999 1.02539 8.48828L1.04102 8.43848C1.99254 6.81579 5.84281 1.18766 13.3652 1.1875Z" stroke="#425A30" stroke-width="1.5"/>
<path d="M13.2344 5.21875C15.128 5.21875 16.581 6.64805 16.5811 8.3125C16.5811 9.97699 15.128 11.4062 13.2344 11.4062C11.3409 11.4061 9.88867 9.97687 9.88867 8.3125C9.88872 6.64817 11.341 5.21895 13.2344 5.21875Z" stroke="#425A30" stroke-width="1.5"/>
</svg>
