<svg width="102" height="50" viewBox="0 0 102 50" fill="none" xmlns="http://www.w3.org/2000/svg">
<path d="M38.7778 17.8V13H73V17.8H38.7778ZM38.7778 27.4V22.6H73V27.4H38.7778ZM38.7778 37V32.2H73V37H38.7778ZM31.4444 17.8C30.7519 17.8 30.1713 17.57 29.7028 17.11C29.2343 16.65 29 16.08 29 15.4C29 14.72 29.2343 14.15 29.7028 13.69C30.1713 13.23 30.7519 13 31.4444 13C32.137 13 32.7176 13.23 33.1861 13.69C33.6546 14.15 33.8889 14.72 33.8889 15.4C33.8889 16.08 33.6546 16.65 33.1861 17.11C32.7176 17.57 32.137 17.8 31.4444 17.8ZM31.4444 27.4C30.7519 27.4 30.1713 27.17 29.7028 26.71C29.2343 26.25 29 25.68 29 25C29 24.32 29.2343 23.75 29.7028 23.29C30.1713 22.83 30.7519 22.6 31.4444 22.6C32.137 22.6 32.7176 22.83 33.1861 23.29C33.6546 23.75 33.8889 24.32 33.8889 25C33.8889 25.68 33.6546 26.25 33.1861 26.71C32.7176 27.17 32.137 27.4 31.4444 27.4ZM31.4444 37C30.7519 37 30.1713 36.77 29.7028 36.31C29.2343 35.85 29 35.28 29 34.6C29 33.92 29.2343 33.35 29.7028 32.89C30.1713 32.43 30.7519 32.2 31.4444 32.2C32.137 32.2 32.7176 32.43 33.1861 32.89C33.6546 33.35 33.8889 33.92 33.8889 34.6C33.8889 35.28 33.6546 35.85 33.1861 36.31C32.7176 36.77 32.137 37 31.4444 37Z" fill="#6B7F6A"/>
</svg>
