<svg width="64" height="32" viewBox="0 0 64 32" fill="none" xmlns="http://www.w3.org/2000/svg">
<path d="M19.7778 8.8V4H54V8.8H19.7778ZM19.7778 18.4V13.6H54V18.4H19.7778ZM19.7778 28V23.2H54V28H19.7778ZM12.4444 8.8C11.7519 8.8 11.1713 8.57 10.7028 8.11C10.2343 7.65 10 7.08 10 6.4C10 5.72 10.2343 5.15 10.7028 4.69C11.1713 4.23 11.7519 4 12.4444 4C13.137 4 13.7176 4.23 14.1861 4.69C14.6546 5.15 14.8889 5.72 14.8889 6.4C14.8889 7.08 14.6546 7.65 14.1861 8.11C13.7176 8.57 13.137 8.8 12.4444 8.8ZM12.4444 18.4C11.7519 18.4 11.1713 18.17 10.7028 17.71C10.2343 17.25 10 16.68 10 16C10 15.32 10.2343 14.75 10.7028 14.29C11.1713 13.83 11.7519 13.6 12.4444 13.6C13.137 13.6 13.7176 13.83 14.1861 14.29C14.6546 14.75 14.8889 15.32 14.8889 16C14.8889 16.68 14.6546 17.25 14.1861 17.71C13.7176 18.17 13.137 18.4 12.4444 18.4ZM12.4444 28C11.7519 28 11.1713 27.77 10.7028 27.31C10.2343 26.85 10 26.28 10 25.6C10 24.92 10.2343 24.35 10.7028 23.89C11.1713 23.43 11.7519 23.2 12.4444 23.2C13.137 23.2 13.7176 23.43 14.1861 23.89C14.6546 24.35 14.8889 24.92 14.8889 25.6C14.8889 26.28 14.6546 26.85 14.1861 27.31C13.7176 27.77 13.137 28 12.4444 28Z" fill="#F4F4F4"/>
</svg>
