<svg width="68" height="54" viewBox="0 0 68 54" fill="none" xmlns="http://www.w3.org/2000/svg">
<path d="M34 29.7373C43.842 29.7373 52.254 35.5286 55.4648 43.6816L55.5859 43.9893L55.3516 44.2207C54.576 44.9868 53.7591 45.712 52.9043 46.3916L52.3369 46.8418L52.1162 46.1523C49.8546 39.0715 42.7419 33.7031 34 33.7031C25.2581 33.7031 18.1454 39.0716 15.8838 46.1523L15.6631 46.8418L15.0957 46.3916C14.2409 45.712 13.424 44.9869 12.6484 44.2207L12.4141 43.9893L12.5352 43.6816C15.746 35.5286 24.158 29.7373 34 29.7373ZM34 7.5C39.2118 7.5 43.4414 11.7043 43.4414 16.8955C43.4412 22.0865 39.2117 26.29 34 26.29C28.7883 26.29 24.5588 22.0865 24.5586 16.8955C24.5586 11.7043 28.7882 7.5 34 7.5ZM34 11.4648C30.9816 11.4648 28.5391 13.899 28.5391 16.8955C28.5393 19.8918 30.9818 22.3252 34 22.3252C37.0182 22.3252 39.4607 19.8918 39.4609 16.8955C39.4609 13.899 37.0184 11.4648 34 11.4648Z" fill="#6B7F6A" stroke="#6B7F6A"/>
</svg>
