<svg width="193" height="193" viewBox="0 0 193 193" fill="none" xmlns="http://www.w3.org/2000/svg">
<circle cx="96.5" cy="96.5" r="96.5" fill="#D0D0D0"/>
<path d="M96.3767 176.22C140.997 176.22 177.169 155.336 177.169 129.575C177.169 103.813 140.997 82.9297 96.3767 82.9297C51.7561 82.9297 15.584 103.813 15.584 129.575C15.584 155.336 51.7561 176.22 96.3767 176.22Z" fill="#F5F5F5"/>
<path d="M84.4335 123.047C93.57 123.047 100.976 118.77 100.976 113.494C100.976 108.218 93.57 103.941 84.4335 103.941C75.2971 103.941 67.8906 108.218 67.8906 113.494C67.8906 118.77 75.2971 123.047 84.4335 123.047Z" fill="#E0E0E0"/>
<path d="M148.258 140.697C157.153 145.833 157.153 154.147 148.258 159.293C139.364 164.439 124.941 164.432 116.05 159.293C107.159 154.154 107.156 145.844 116.05 140.694C124.945 135.544 139.364 135.555 148.258 140.697Z" fill="#E0E0E0"/>
<path d="M65.1901 106.937L111.91 133.903C112.096 134.01 112.251 134.165 112.359 134.352C112.467 134.538 112.524 134.75 112.524 134.965C112.524 135.18 112.467 135.392 112.359 135.578C112.251 135.765 112.096 135.919 111.91 136.027L84.3451 151.954C83.7738 152.284 83.1256 152.458 82.4657 152.458C81.8058 152.458 81.1576 152.284 80.5863 151.954L33.8739 124.97C33.6863 124.863 33.5302 124.709 33.4216 124.522C33.3131 124.336 33.2559 124.124 33.2559 123.908C33.2559 123.692 33.3131 123.48 33.4216 123.294C33.5302 123.107 33.6863 122.953 33.8739 122.846L61.4419 106.919C62.0133 106.593 62.6605 106.423 63.3184 106.426C63.9763 106.429 64.6219 106.605 65.1901 106.937Z" fill="#E0E0E0"/>
<path d="M47.1859 127.001L79.5639 146.252C79.6799 146.32 79.7761 146.417 79.8429 146.534C79.9097 146.65 79.9449 146.782 79.9449 146.917C79.9449 147.051 79.9097 147.184 79.8429 147.3C79.7761 147.417 79.6799 147.514 79.5639 147.582L62.2211 157.588C61.8621 157.795 61.455 157.904 61.0407 157.904C60.6264 157.904 60.2193 157.795 59.8603 157.588L27.5036 138.338C27.3867 138.27 27.2897 138.173 27.2222 138.056C27.1547 137.94 27.1191 137.807 27.1191 137.672C27.1191 137.537 27.1547 137.405 27.2222 137.288C27.2897 137.171 27.3867 137.074 27.5036 137.007L44.8464 127.001C45.2029 126.798 45.606 126.691 46.0162 126.691C46.4264 126.691 46.8295 126.798 47.1859 127.001Z" fill="#E0E0E0"/>
<path d="M106.679 87.682L162.247 119.749C162.641 119.976 163.089 120.096 163.544 120.096C163.999 120.096 164.447 119.976 164.841 119.749L168.331 117.735C168.468 117.656 168.581 117.543 168.66 117.407C168.74 117.27 168.781 117.115 168.781 116.958C168.781 116.8 168.74 116.645 168.66 116.509C168.581 116.372 168.468 116.259 168.331 116.181L112.802 84.1356C112.398 83.9009 111.939 83.7773 111.471 83.7773C111.004 83.7773 110.545 83.9009 110.141 84.1356L106.686 86.1282C106.549 86.206 106.435 86.3186 106.355 86.4547C106.275 86.5907 106.233 86.7454 106.232 86.9031C106.232 87.0607 106.273 87.2158 106.351 87.3526C106.429 87.4893 106.543 87.603 106.679 87.682Z" fill="#E0E0E0"/>
<path d="M110.785 86.0531L164.781 117.228C164.974 117.34 165.193 117.399 165.416 117.399C165.64 117.399 165.859 117.341 166.052 117.23C166.245 117.119 166.406 116.958 166.518 116.766C166.63 116.573 166.689 116.354 166.689 116.131V45.0108C166.688 44.4039 166.528 43.8078 166.224 43.2823C165.92 42.7568 165.484 42.3203 164.958 42.0165L113.365 12.2187C113.104 12.0677 112.807 11.9883 112.505 11.9883C112.203 11.9883 111.907 12.0678 111.645 12.2188C111.384 12.3699 111.166 12.5871 111.015 12.8486C110.865 13.1101 110.785 13.4068 110.785 13.7088V86.0531Z" fill="#425A30"/>
<path opacity="0.5" d="M110.785 86.0531L164.781 117.228C164.974 117.34 165.193 117.399 165.416 117.399C165.64 117.399 165.859 117.341 166.052 117.23C166.245 117.119 166.406 116.958 166.518 116.766C166.63 116.573 166.689 116.354 166.689 116.131V45.0108C166.688 44.4039 166.528 43.8078 166.224 43.2823C165.92 42.7568 165.484 42.3203 164.958 42.0165L113.365 12.2187C113.104 12.0677 112.807 11.9883 112.505 11.9883C112.203 11.9883 111.907 12.0678 111.645 12.2188C111.384 12.3699 111.166 12.5871 111.015 12.8486C110.865 13.1101 110.785 13.4068 110.785 13.7088V86.0531Z" fill="white"/>
<path d="M112.309 89.3208L161.821 117.905V45.6346L112.309 17.0508V89.3208Z" fill="#425A30"/>
<path opacity="0.8" d="M112.309 89.3208L161.821 117.905V45.6346L112.309 17.0508V89.3208Z" fill="white"/>
<path d="M107.477 83.5481L156.989 112.132L161.823 45.6346L112.311 17.0508L107.477 83.5481Z" fill="#425A30"/>
<path opacity="0.9" d="M107.477 83.5481L156.989 112.132L161.823 45.6346L112.311 17.0508L107.477 83.5481Z" fill="white"/>
<path d="M112.309 17.0514L161.821 45.6352L163.696 44.5522L114.184 15.9648L112.309 17.0514Z" fill="#425A30"/>
<path opacity="0.7" d="M112.309 17.0514L161.821 45.6352L163.696 44.5522L114.184 15.9648L112.309 17.0514Z" fill="white"/>
<path d="M163.7 44.5508V116.545L161.824 117.904V45.6338L163.7 44.5508Z" fill="#425A30"/>
<path d="M163.7 44.5508V116.545L161.824 117.904V45.6338L163.7 44.5508Z" fill="#425A30"/>
<path opacity="0.7" d="M163.7 44.5508V116.545L161.824 117.904V45.6338L163.7 44.5508Z" fill="white"/>
<path d="M148.198 55.0137C148.155 55.0191 148.111 55.0191 148.068 55.0137C147.993 54.9934 147.924 54.9559 147.866 54.9043C147.808 54.8527 147.763 54.7884 147.735 54.7164L146.262 51.0178C146.215 50.8952 146.217 50.7588 146.27 50.6382C146.322 50.5176 146.42 50.4225 146.542 50.3736C146.602 50.349 146.667 50.3366 146.732 50.3371C146.798 50.3377 146.862 50.3512 146.922 50.3769C146.982 50.4026 147.036 50.4399 147.081 50.4867C147.127 50.5336 147.162 50.589 147.186 50.6497L148.411 53.7254L155.458 48.1297C155.509 48.0873 155.568 48.0556 155.632 48.0365C155.695 48.0174 155.762 48.0113 155.828 48.0186C155.894 48.0259 155.958 48.0463 156.016 48.0788C156.074 48.1113 156.125 48.155 156.166 48.2075C156.207 48.2591 156.238 48.3183 156.256 48.3818C156.275 48.4453 156.281 48.5119 156.274 48.5776C156.266 48.6434 156.246 48.7071 156.214 48.7651C156.182 48.823 156.139 48.8741 156.088 48.9154L148.517 54.9323C148.423 54.9952 148.311 55.0239 148.198 55.0137Z" fill="#425A30"/>
<path d="M139.965 47.0403C139.879 47.0402 139.793 47.0183 139.717 46.9766L118.871 34.9428C118.757 34.8767 118.674 34.7679 118.64 34.6404C118.606 34.513 118.624 34.3773 118.69 34.2633C118.756 34.1492 118.865 34.0661 118.993 34.0323C119.12 33.9984 119.256 34.0166 119.37 34.0828L140.217 46.1166C140.313 46.1706 140.388 46.2552 140.431 46.3569C140.473 46.4586 140.481 46.5716 140.452 46.678C140.423 46.7845 140.359 46.8782 140.271 46.9445C140.183 47.0108 140.075 47.0457 139.965 47.0439V47.0403Z" fill="#425A30"/>
<path d="M139.489 51.3173C139.402 51.3176 139.316 51.2943 139.241 51.2501L118.394 39.2163C118.28 39.1501 118.197 39.0413 118.163 38.9139C118.129 38.7864 118.147 38.6508 118.214 38.5367C118.28 38.4227 118.389 38.3396 118.516 38.3057C118.643 38.2719 118.779 38.29 118.893 38.3562L139.74 50.39C139.836 50.4441 139.911 50.5286 139.954 50.6303C139.997 50.732 140.004 50.8451 139.975 50.9515C139.946 51.0579 139.883 51.1517 139.795 51.2179C139.707 51.2842 139.599 51.3192 139.489 51.3173Z" fill="#425A30"/>
<path d="M151.518 60.4321C151.292 60.4319 151.07 60.3734 150.874 60.2622L144.429 56.698C143.964 56.4434 143.583 56.0594 143.332 55.5927C143.08 55.1261 142.97 54.5966 143.013 54.0683L143.625 46.8799C143.646 46.6576 143.722 46.4441 143.846 46.2588C143.97 46.0735 144.139 45.9223 144.337 45.8191C144.535 45.7159 144.756 45.6641 144.979 45.6682C145.202 45.6723 145.421 45.7324 145.615 45.8429L152.392 49.7574C152.714 49.945 152.977 50.2187 153.151 50.5476C153.326 50.8765 153.405 51.2476 153.38 51.6191L152.828 59.1968C152.811 59.4176 152.739 59.6306 152.619 59.8162C152.498 60.0017 152.333 60.1539 152.138 60.2586C151.948 60.3656 151.736 60.4251 151.518 60.4321ZM144.967 46.6604C144.883 46.6601 144.802 46.6911 144.74 46.7474C144.677 46.8037 144.639 46.8813 144.631 46.9648L144.018 54.1533C143.989 54.4887 144.058 54.8253 144.216 55.1224C144.375 55.4195 144.616 55.6644 144.91 55.8274L151.355 59.395C151.405 59.4205 151.46 59.4338 151.516 59.4338C151.572 59.4338 151.628 59.4205 151.677 59.395C151.727 59.3684 151.768 59.3298 151.799 59.2828C151.829 59.2357 151.847 59.1818 151.851 59.126L152.403 51.5483C152.415 51.3633 152.376 51.1785 152.289 51.0147C152.202 50.8509 152.071 50.7146 151.911 50.621L145.13 46.7065C145.081 46.6759 145.024 46.6599 144.967 46.6604Z" fill="#425A30"/>
<path d="M138.495 64.7509C138.407 64.7508 138.322 64.7276 138.247 64.6837L117.4 52.6499C117.286 52.5837 117.203 52.4749 117.169 52.3475C117.135 52.22 117.153 52.0844 117.22 51.9703C117.286 51.8563 117.394 51.7732 117.522 51.7393C117.649 51.7055 117.785 51.7236 117.899 51.7898L138.746 63.8236C138.842 63.8777 138.917 63.9622 138.96 64.0639C139.003 64.1656 139.01 64.2786 138.981 64.3851C138.952 64.4915 138.889 64.5853 138.801 64.6515C138.713 64.7178 138.605 64.7528 138.495 64.7509Z" fill="#425A30"/>
<path d="M138.018 69.0243C137.931 69.0243 137.845 69.001 137.77 68.9571L116.923 56.9233C116.867 56.8905 116.817 56.847 116.778 56.7951C116.738 56.7432 116.709 56.684 116.692 56.6209C116.676 56.5578 116.672 56.492 116.68 56.4273C116.689 56.3626 116.71 56.3002 116.743 56.2438C116.776 56.1873 116.819 56.1378 116.871 56.0982C116.923 56.0585 116.982 56.0295 117.045 56.0128C117.108 55.996 117.174 55.9918 117.239 56.0005C117.304 56.0092 117.366 56.0305 117.422 56.0632L138.269 68.097C138.365 68.1511 138.441 68.2357 138.483 68.3374C138.526 68.4391 138.533 68.5521 138.505 68.6585C138.476 68.7649 138.412 68.8587 138.324 68.925C138.236 68.9912 138.128 69.0262 138.018 69.0243Z" fill="#425A30"/>
<path d="M150.048 78.1389C149.822 78.1378 149.601 78.0807 149.403 77.9726L142.958 74.4049C142.493 74.1506 142.112 73.7667 141.861 73.2999C141.609 72.8332 141.499 72.3035 141.543 71.7752L142.18 64.6009C142.199 64.3782 142.275 64.1641 142.399 63.9782C142.523 63.7924 142.692 63.6408 142.89 63.5375C143.088 63.4341 143.309 63.3824 143.533 63.387C143.756 63.3916 143.975 63.4525 144.169 63.5639L150.947 67.4784C151.268 67.6651 151.531 67.9381 151.706 68.2665C151.88 68.5949 151.959 68.9655 151.934 69.3366L151.382 76.9072C151.357 77.2415 151.207 77.5541 150.961 77.7824C150.716 78.0107 150.393 78.1381 150.058 78.1389H150.048ZM143.496 64.3673C143.442 64.3682 143.389 64.3815 143.341 64.4062C143.29 64.4317 143.247 64.4699 143.215 64.517C143.183 64.5641 143.164 64.6186 143.16 64.6752L142.534 71.8601C142.505 72.1955 142.573 72.5322 142.732 72.8293C142.89 73.1264 143.131 73.3713 143.425 73.5342L149.871 77.1019C149.92 77.1302 149.975 77.145 150.032 77.145C150.088 77.145 150.144 77.1302 150.193 77.1019C150.243 77.0764 150.285 77.038 150.316 76.9908C150.346 76.9435 150.364 76.8891 150.366 76.8329L150.918 69.2552C150.931 69.0701 150.891 68.8854 150.804 68.7216C150.717 68.5578 150.586 68.4215 150.426 68.3278L143.645 64.4133C143.6 64.3852 143.549 64.3693 143.496 64.3673Z" fill="#425A30"/>
<path d="M146.914 72.5579C146.871 72.5631 146.827 72.5631 146.783 72.5579C146.708 72.5375 146.64 72.5001 146.582 72.4485C146.524 72.3969 146.479 72.3326 146.45 72.2606L144.978 68.5655C144.94 68.4451 144.949 68.3147 145.004 68.2009C145.059 68.0871 145.155 67.9986 145.273 67.9534C145.391 67.9082 145.522 67.9098 145.639 67.9578C145.756 68.0058 145.85 68.0965 145.902 68.2116L147.137 71.2554L154.173 65.6632C154.277 65.5931 154.404 65.5648 154.528 65.584C154.652 65.6031 154.765 65.6683 154.843 65.7665C154.921 65.8647 154.959 65.9888 154.95 66.114C154.941 66.2391 154.884 66.3562 154.793 66.4419L147.222 72.4588C147.133 72.5253 147.025 72.5602 146.914 72.5579Z" fill="#425A30"/>
<path d="M137.029 82.4563C136.942 82.4566 136.856 82.4333 136.781 82.3891L115.931 70.3553C115.822 70.2866 115.743 70.1781 115.712 70.0528C115.681 69.9274 115.7 69.7948 115.764 69.6829C115.829 69.5711 115.934 69.4887 116.059 69.453C116.183 69.4173 116.316 69.4312 116.43 69.4917L137.277 81.5255C137.373 81.5794 137.448 81.6637 137.49 81.765C137.533 81.8663 137.541 81.979 137.512 82.0852C137.484 82.1914 137.421 82.2852 137.334 82.3517C137.246 82.4183 137.139 82.4538 137.029 82.4528V82.4563Z" fill="#425A30"/>
<path d="M136.547 86.7353C136.459 86.7351 136.372 86.712 136.296 86.668L115.449 74.6342C115.392 74.6015 115.343 74.5579 115.303 74.506C115.264 74.4541 115.235 74.395 115.218 74.3318C115.201 74.2687 115.197 74.203 115.206 74.1382C115.214 74.0735 115.236 74.0112 115.268 73.9547C115.301 73.8982 115.345 73.8488 115.397 73.8091C115.448 73.7695 115.508 73.7405 115.571 73.7237C115.634 73.7069 115.7 73.7028 115.764 73.7114C115.829 73.7201 115.891 73.7414 115.948 73.7742L136.795 85.808C136.889 85.8629 136.964 85.9475 137.006 86.0488C137.047 86.15 137.055 86.2622 137.027 86.3681C136.999 86.474 136.936 86.5677 136.85 86.6347C136.763 86.7017 136.656 86.7383 136.547 86.7388V86.7353Z" fill="#425A30"/>
<path d="M148.575 95.846C148.351 95.8471 148.13 95.7897 147.935 95.6796L141.472 92.1119C141.007 91.8573 140.626 91.4733 140.375 91.0067C140.123 90.54 140.013 90.0105 140.056 89.4822L140.672 82.2973C140.69 82.0748 140.765 81.8607 140.889 81.6749C141.012 81.4892 141.181 81.338 141.38 81.2355C141.578 81.1326 141.799 81.0813 142.022 81.0863C142.246 81.0912 142.464 81.1523 142.657 81.2638L149.435 85.1784C149.757 85.3661 150.019 85.64 150.193 85.9689C150.367 86.2979 150.445 86.6689 150.419 87.0401L149.867 94.6178C149.85 94.8384 149.778 95.0511 149.657 95.2366C149.537 95.4221 149.372 95.5744 149.177 95.6796C148.992 95.7815 148.786 95.8385 148.575 95.846ZM142.024 82.0779C141.97 82.0777 141.917 82.0898 141.868 82.1133C141.819 82.1405 141.777 82.1791 141.745 82.2259C141.714 82.2727 141.694 82.3263 141.688 82.3823L141.075 89.5671C141.046 89.9026 141.114 90.2394 141.273 90.5366C141.431 90.8338 141.672 91.0786 141.967 91.2413L148.416 94.8089C148.465 94.8367 148.519 94.8516 148.575 94.8523C148.631 94.853 148.686 94.8395 148.736 94.8129C148.785 94.7863 148.827 94.7476 148.857 94.7005C148.887 94.6534 148.905 94.5993 148.908 94.5435L149.46 86.9622C149.473 86.7771 149.434 86.592 149.347 86.428C149.26 86.2641 149.129 86.1279 148.968 86.0349L142.18 82.1204C142.132 82.0944 142.078 82.0799 142.024 82.0779Z" fill="#425A30"/>
<path d="M148.228 41.5426C147.856 41.5441 147.49 41.4476 147.166 41.263L138.286 36.2477C138.188 36.1923 138.112 36.1048 138.07 36C137.641 34.8923 136.875 33.9475 135.879 33.2994C135.525 33.0871 134.598 32.6659 134.11 33.3773C134.038 33.477 133.932 33.5468 133.812 33.5735C133.692 33.6002 133.566 33.5821 133.458 33.5224L125.806 29.2256C125.376 28.9774 125.019 28.6204 124.771 28.1905C124.522 27.7606 124.391 27.2729 124.391 26.7764V21.3329C124.391 20.7422 124.561 20.164 124.879 19.6666C125.198 19.1693 125.652 18.7735 126.189 18.5262C126.261 18.4928 126.34 18.4773 126.419 18.481C126.499 18.4847 126.576 18.5075 126.645 18.5474L151.23 32.8322C151.309 32.8779 151.375 32.945 151.419 33.0258C151.463 33.1066 151.483 33.1981 151.478 33.29C151.473 33.3818 151.442 33.4704 151.39 33.5458C151.337 33.6213 151.264 33.6806 151.18 33.7171C150.946 33.8196 150.747 33.988 150.608 34.2017C150.468 34.4154 150.394 34.6652 150.394 34.9204V39.3871C150.398 39.7631 150.301 40.1333 150.115 40.4597C149.928 40.7862 149.658 41.0573 149.332 41.2453C148.998 41.442 148.616 41.5447 148.228 41.5426ZM138.909 35.4655L147.658 40.3958C147.834 40.4955 148.034 40.5472 148.236 40.5458C148.439 40.5444 148.637 40.4899 148.812 40.3879C148.987 40.2858 149.132 40.1397 149.232 39.9641C149.333 39.7885 149.386 39.5895 149.386 39.3871V34.9204C149.385 34.3153 149.623 33.7343 150.047 33.303L126.369 19.5455C126.068 19.7336 125.819 19.9941 125.645 20.3032C125.47 20.6124 125.376 20.9603 125.371 21.3152V26.7764C125.371 27.0983 125.457 27.4143 125.619 27.6922C125.782 27.9702 126.015 28.2001 126.295 28.3585L133.575 32.4606C134.265 31.8518 135.31 31.8306 136.364 32.4394C137.505 33.1607 138.394 34.2179 138.909 35.4655Z" fill="#425A30"/>
<path d="M87.0035 98.3492L82.7562 124.321C82.7252 124.511 82.6277 124.683 82.4811 124.808C82.3346 124.932 82.1486 125 81.9563 125C81.8423 125.001 81.7296 124.977 81.6254 124.93C81.5212 124.884 81.428 124.816 81.3519 124.731C81.2757 124.647 81.2183 124.547 81.1834 124.438C81.1485 124.329 81.1369 124.215 81.1494 124.101L84.1366 97.3086L87.0035 98.3492Z" fill="#817C6E"/>
<path d="M72.3105 89.6144L68.0632 115.586C68.033 115.776 67.9362 115.948 67.7902 116.073C67.6443 116.197 67.4587 116.266 67.2669 116.266C67.1529 116.266 67.0401 116.242 66.9359 116.196C66.8318 116.149 66.7386 116.081 66.6624 115.997C66.5863 115.912 66.5289 115.812 66.494 115.703C66.4591 115.595 66.4475 115.48 66.4599 115.367L69.4471 88.5703L72.3105 89.6144Z" fill="#817C6E"/>
<path d="M93.5371 92.2773L97.7383 114.66C97.7772 114.83 97.8795 114.979 98.0244 115.076C98.1693 115.173 98.3458 115.21 98.5177 115.182C98.6896 115.153 98.8439 115.059 98.949 114.92C99.0542 114.781 99.1022 114.607 99.0833 114.434L95.9828 93.6895L93.5371 92.2773Z" fill="#817C6E"/>
<path d="M78.6797 83.9297L82.8561 106.175C82.8852 106.331 82.9685 106.473 83.0914 106.574C83.2144 106.676 83.3691 106.731 83.5286 106.73C83.6265 106.73 83.7232 106.708 83.8121 106.667C83.901 106.626 83.9801 106.567 84.0442 106.493C84.1082 106.418 84.1556 106.332 84.1833 106.238C84.211 106.144 84.2182 106.045 84.2046 105.948L81.1254 85.3383L78.6797 83.9297Z" fill="#817C6E"/>
<path d="M79.8839 82.2375C80.8511 81.8132 81.6884 81.1398 82.3102 80.286C82.9321 79.4323 83.3161 78.4288 83.4232 77.378C84.0993 70.5647 86.4989 56.5206 94.6359 61.1961C104.673 66.9652 101.081 83.724 99.6193 89.0968C99.2926 90.3073 98.6572 91.4122 97.7753 92.3034C95.9596 94.1333 92.2044 97.2798 85.8194 99.9555C85.0346 100.286 84.1605 100.338 83.3418 100.104C80.1564 99.2016 71.8814 96.4232 67.7475 91.139C67.5128 90.8392 67.4065 90.4586 67.4516 90.0806C67.4967 89.7026 67.6896 89.3578 67.9881 89.1216C69.6481 87.7908 73.4281 85.1292 79.8839 82.2375Z" fill="#F5F0E1"/>
<path opacity="0.5" d="M79.8839 82.2375C80.8511 81.8132 81.6884 81.1398 82.3102 80.286C82.9321 79.4323 83.3161 78.4288 83.4232 77.378C84.0993 70.5647 86.4989 56.5206 94.6359 61.1961C104.673 66.9652 101.081 83.724 99.6193 89.0968C99.2926 90.3073 98.6572 91.4122 97.7753 92.3034C95.9596 94.1333 92.2044 97.2798 85.8194 99.9555C85.0346 100.286 84.1605 100.338 83.3418 100.104C80.1564 99.2016 71.8814 96.4232 67.7475 91.139C67.5128 90.8392 67.4065 90.4586 67.4516 90.0806C67.4967 89.7026 67.6896 89.3578 67.9881 89.1216C69.6481 87.7908 73.4281 85.1292 79.8839 82.2375Z" fill="#4D4D4D"/>
<path d="M67.4344 90.1785C67.4129 90.5238 67.5187 90.865 67.7317 91.1377C67.9546 91.4208 68.1882 91.6934 68.4395 91.9624C68.5705 92.1075 68.7085 92.2526 68.8466 92.3942C68.9846 92.5357 69.1262 92.6738 69.2677 92.8083L69.7031 93.2118C69.8517 93.3462 70.0039 93.4772 70.1561 93.6082C72.4992 95.576 75.3448 97.0732 77.8861 98.1562L78.3568 98.3509L78.4063 98.3721L78.8381 98.5456L78.916 98.5774L79.3195 98.7367L79.4115 98.7721L79.7902 98.9137L79.8964 98.9526C80.0167 98.9986 80.13 99.0411 80.2503 99.08L80.3742 99.126L80.6963 99.2393L80.8308 99.2853L81.1281 99.3879L81.2697 99.4375L81.5387 99.526L81.6909 99.5755L81.9351 99.6534L82.0979 99.7065L82.3067 99.7702L82.4837 99.8268L82.6571 99.8799L82.873 99.9436L82.9827 99.9755L83.2871 100.064C84.1058 100.298 84.9798 100.246 85.7647 99.9153C92.1355 97.2395 95.9049 94.0931 97.7206 92.2632C98.6025 91.372 99.2379 90.2671 99.5646 89.0566C101.026 83.6838 104.619 66.925 94.5812 61.1559C94.4007 61.0532 94.2272 60.9612 94.0538 60.8798C94.0172 60.8588 93.9793 60.8399 93.9406 60.8232C93.7707 60.7418 93.6043 60.671 93.4415 60.6073L93.392 60.5896C93.2327 60.5294 93.0805 60.4798 92.9248 60.4338L92.854 60.4126C92.6912 60.3666 92.5284 60.3312 92.3691 60.2993H92.3266C92.0092 60.2414 91.6864 60.2176 91.3639 60.2285C91.0561 60.2391 90.7507 60.2867 90.4543 60.3701C92.0576 59.6623 94.0149 59.6941 95.9544 60.809C105.996 66.5781 102.4 83.3334 100.941 88.7097L100.694 89.6299C100.208 91.5058 99.1123 93.1668 97.579 94.3514L94.974 96.3441C92.1569 98.4703 89.077 100.224 85.8107 101.561C85.0259 101.891 84.1524 101.945 83.3331 101.713C80.1477 100.811 71.8692 98.0359 67.7352 92.7481C67.5589 92.5223 67.4552 92.2483 67.4379 91.9624V90.1927L67.4344 90.1785Z" fill="#F5F0E1"/>
<path opacity="0.6" d="M67.4344 90.1785C67.4129 90.5238 67.5187 90.865 67.7317 91.1377C67.9546 91.4208 68.1882 91.6934 68.4395 91.9624C68.5705 92.1075 68.7085 92.2526 68.8466 92.3942C68.9846 92.5357 69.1262 92.6738 69.2677 92.8083L69.7031 93.2118C69.8517 93.3462 70.0039 93.4772 70.1561 93.6082C72.4992 95.576 75.3448 97.0732 77.8861 98.1562L78.3568 98.3509L78.4063 98.3721L78.8381 98.5456L78.916 98.5774L79.3195 98.7367L79.4115 98.7721L79.7902 98.9137L79.8964 98.9526C80.0167 98.9986 80.13 99.0411 80.2503 99.08L80.3742 99.126L80.6963 99.2393L80.8308 99.2853L81.1281 99.3879L81.2697 99.4375L81.5387 99.526L81.6909 99.5755L81.9351 99.6534L82.0979 99.7065L82.3067 99.7702L82.4837 99.8268L82.6571 99.8799L82.873 99.9436L82.9827 99.9755L83.2871 100.064C84.1058 100.298 84.9798 100.246 85.7647 99.9153C92.1355 97.2395 95.9049 94.0931 97.7206 92.2632C98.6025 91.372 99.2379 90.2671 99.5646 89.0566C101.026 83.6838 104.619 66.925 94.5812 61.1559C94.4007 61.0532 94.2272 60.9612 94.0538 60.8798C94.0172 60.8588 93.9793 60.8399 93.9406 60.8232C93.7707 60.7418 93.6043 60.671 93.4415 60.6073L93.392 60.5896C93.2327 60.5294 93.0805 60.4798 92.9248 60.4338L92.854 60.4126C92.6912 60.3666 92.5284 60.3312 92.3691 60.2993H92.3266C92.0092 60.2414 91.6864 60.2176 91.3639 60.2285C91.0561 60.2391 90.7507 60.2867 90.4543 60.3701C92.0576 59.6623 94.0149 59.6941 95.9544 60.809C105.996 66.5781 102.4 83.3334 100.941 88.7097L100.694 89.6299C100.208 91.5058 99.1123 93.1668 97.579 94.3514L94.974 96.3441C92.1569 98.4703 89.077 100.224 85.8107 101.561C85.0259 101.891 84.1524 101.945 83.3331 101.713C80.1477 100.811 71.8692 98.0359 67.7352 92.7481C67.5589 92.5223 67.4552 92.2483 67.4379 91.9624V90.1927L67.4344 90.1785Z" fill="#4D4D4D"/>
<path d="M80.6381 149.957C80.897 150.088 81.1832 150.157 81.4733 150.157C81.7635 150.157 82.0497 150.088 82.3086 149.957C82.7723 149.692 82.7723 149.25 82.3086 148.995C82.0502 148.862 81.7638 148.793 81.4733 148.793C81.1828 148.793 80.8965 148.862 80.6381 148.995C80.1779 149.26 80.1779 149.692 80.6381 149.957Z" fill="#ABA48D"/>
<path d="M80.2861 149.445H82.6504V121.003H80.2861V149.445Z" fill="#ABA48D"/>
<path d="M107.495 134.181C107.754 134.312 108.04 134.38 108.331 134.38C108.621 134.38 108.907 134.312 109.166 134.181C109.63 133.912 109.63 133.473 109.166 133.215C108.907 133.084 108.621 133.016 108.331 133.016C108.04 133.016 107.754 133.084 107.495 133.215C107.046 133.48 107.046 133.912 107.495 134.181Z" fill="#928B77"/>
<path d="M107.155 133.672H109.52V105.23H107.155V133.672Z" fill="#928B77"/>
<path d="M36.5931 124.435C36.8516 124.568 37.1379 124.637 37.4284 124.637C37.7189 124.637 38.0052 124.568 38.2637 124.435C38.7274 124.17 38.7274 123.727 38.2637 123.473C38.0047 123.342 37.7186 123.273 37.4284 123.273C37.1382 123.273 36.8521 123.342 36.5931 123.473C36.133 123.738 36.133 124.17 36.5931 124.435Z" fill="#ABA48D"/>
<path d="M36.2451 123.93H38.6094V95.4875H36.2451V123.93Z" fill="#ABA48D"/>
<path d="M65.4781 102.915C65.7098 103.034 65.9664 103.096 66.2267 103.096C66.487 103.096 66.7436 103.034 66.9753 102.915C67.0652 102.884 67.1433 102.826 67.1985 102.749C67.2538 102.671 67.2835 102.579 67.2835 102.483C67.2835 102.388 67.2538 102.296 67.1985 102.218C67.1433 102.141 67.0652 102.083 66.9753 102.052C66.7436 101.933 66.487 101.871 66.2267 101.871C65.9664 101.871 65.7098 101.933 65.4781 102.052C65.3882 102.083 65.3101 102.141 65.2549 102.218C65.1996 102.296 65.1699 102.388 65.1699 102.483C65.1699 102.579 65.1996 102.671 65.2549 102.749C65.3101 102.826 65.3882 102.884 65.4781 102.915Z" fill="#E2DDCF"/>
<path d="M65.1612 102.461H67.2812V78.7261H65.1612V102.461Z" fill="#E2DDCF"/>
<path d="M109.522 100.52V106.179L81.4688 122.375V116.716L109.522 100.52Z" fill="#928B77"/>
<path d="M36.2461 90.6055L81.4684 116.715V122.375L36.2461 96.2649V90.6055Z" fill="#ABA48D"/>
<path d="M64.299 74.4062L109.521 100.516L81.4684 116.712L36.2461 90.6023L64.299 74.4062Z" fill="#E2DDCF"/>
<path opacity="0.2" d="M64.4417 102.399L43.6409 90.3904C43.5909 90.3615 43.5494 90.3199 43.5206 90.2699C43.4917 90.2199 43.4766 90.1632 43.4766 90.1055C43.4766 90.0477 43.4917 89.991 43.5206 89.941C43.5494 89.891 43.5909 89.8494 43.6409 89.8205L47.6439 87.5093C47.6947 87.4827 47.7511 87.4688 47.8085 87.4688C47.8658 87.4688 47.9223 87.4827 47.9731 87.5093L68.7738 99.5184C68.823 99.5475 68.8637 99.5889 68.892 99.6386C68.9203 99.6882 68.9351 99.7444 68.9351 99.8015C68.9351 99.8586 68.9203 99.9148 68.892 99.9644C68.8637 100.014 68.823 100.056 68.7738 100.085L64.7673 102.399C64.7175 102.427 64.6615 102.442 64.6045 102.442C64.5474 102.442 64.4914 102.427 64.4417 102.399Z" fill="black"/>
<path d="M84.3569 111.851L72.224 104.772C72.1968 104.757 72.1743 104.734 72.1587 104.707C72.143 104.679 72.1348 104.648 72.1348 104.617C72.1348 104.585 72.143 104.554 72.1587 104.527C72.1743 104.5 72.1968 104.477 72.224 104.461L85.6735 96.1719L84.3569 111.851Z" fill="#8A9A7E"/>
<path opacity="0.4" d="M84.3569 111.851L72.224 104.772C72.1968 104.757 72.1743 104.734 72.1587 104.707C72.143 104.679 72.1348 104.648 72.1348 104.617C72.1348 104.585 72.143 104.554 72.1587 104.527C72.1743 104.5 72.1968 104.477 72.224 104.461L85.6735 96.1719L84.3569 111.851Z" fill="black"/>
<path d="M84.3574 111.85L97.8848 104.018V100.457L84.3574 108.258V111.85Z" fill="#8A9A7E"/>
<path opacity="0.2" d="M84.3574 111.85L97.8848 104.018V100.457L84.3574 108.258V111.85Z" fill="black"/>
<path d="M95.2429 104.565L89.902 107.648C89.548 107.853 89.2578 107.648 89.2578 107.163C89.2619 106.922 89.3223 106.686 89.4342 106.473C89.546 106.259 89.7062 106.075 89.902 105.935L95.2429 102.849C95.5968 102.643 95.887 102.849 95.887 103.337C95.8838 103.578 95.8237 103.815 95.7118 104.028C95.5999 104.242 95.4392 104.426 95.2429 104.565Z" fill="#E6E6E6"/>
<path d="M88.4768 107.62C88.4633 107.878 88.3889 108.128 88.2597 108.352C88.1305 108.575 87.9501 108.765 87.7335 108.905C87.3229 109.142 86.9902 108.951 86.9902 108.476C87.0043 108.219 87.0789 107.968 87.2081 107.745C87.3372 107.522 87.5172 107.332 87.7335 107.192C88.1441 106.955 88.4768 107.146 88.4768 107.62Z" fill="#E6E6E6"/>
<path d="M84.3596 108.26L72.2762 102.579C72.2465 102.565 72.2212 102.543 72.2029 102.515C72.1846 102.488 72.174 102.456 72.1722 102.423C72.1703 102.39 72.1774 102.357 72.1926 102.328C72.2078 102.299 72.2306 102.274 72.2585 102.257L85.2232 94.5481C85.2959 94.5045 85.3786 94.48 85.4634 94.4769C85.5481 94.4738 85.6323 94.4922 85.7081 94.5304L97.887 100.459L84.3596 108.26Z" fill="#8A9A7E"/>
<path d="M73.0508 102.941V104.47L83.0601 110.133V107.649L73.0508 102.941Z" fill="#F5F5F5"/>
<path d="M83.0605 110.133L84.356 109.323V108.257L83.0605 107.648V110.133Z" fill="#E0E0E0"/>
<path d="M72.1699 101.107V97.1641H94.2307C94.305 97.1641 96.6728 98.3993 97.7205 98.9337C97.7677 98.9597 97.8071 98.9978 97.8346 99.0442C97.862 99.0906 97.8765 99.1435 97.8765 99.1974C97.8765 99.2513 97.862 99.3042 97.8346 99.3506C97.8071 99.397 97.7677 99.4351 97.7205 99.4611L84.6568 106.862C84.5645 106.912 84.4615 106.94 84.3563 106.944C84.2511 106.947 84.1466 106.925 84.0515 106.88L72.1699 101.107Z" fill="#8A9A7E"/>
<path opacity="0.4" d="M72.1699 101.107V97.1641H94.2307C94.305 97.1641 96.6728 98.3993 97.7205 98.9337C97.7677 98.9597 97.8071 98.9978 97.8346 99.0442C97.862 99.0906 97.8765 99.1435 97.8765 99.1974C97.8765 99.2513 97.862 99.3042 97.8346 99.3506C97.8071 99.397 97.7677 99.4351 97.7205 99.4611L84.6568 106.862C84.5645 106.912 84.4615 106.94 84.3563 106.944C84.2511 106.947 84.1466 106.925 84.0515 106.88L72.1699 101.107Z" fill="black"/>
<path d="M84.3574 105.925L96.8726 98.8884V97.3594L84.3574 104.017V105.925Z" fill="#E0E0E0"/>
<path d="M72.1699 101.106L75.4438 99.1914L72.1699 97.1562V101.106Z" fill="#8A9A7E"/>
<path opacity="0.6" d="M72.1699 101.106L75.4438 99.1914L72.1699 97.1562V101.106Z" fill="black"/>
<path d="M74.2344 98.4414V100.622L84.3569 105.927V104.019L74.2344 98.4414Z" fill="#F5F5F5"/>
<path d="M72.1699 97.162L83.9383 104.177C84.067 104.254 84.2133 104.297 84.3633 104.301C84.5132 104.305 84.6618 104.271 84.7948 104.202L97.7665 97.4062C97.8124 97.3814 97.851 97.3452 97.8787 97.3009C97.9063 97.2567 97.922 97.206 97.9241 97.1539C97.9262 97.1018 97.9148 97.05 97.8909 97.0037C97.867 96.9573 97.8314 96.918 97.7877 96.8895L85.9451 89.1914L72.1699 97.162Z" fill="#8A9A7E"/>
<path d="M77.0556 88.8789V89.693L71.8457 92.6342V91.8201L77.0556 88.8789Z" fill="#8A9A7E"/>
<path opacity="0.2" d="M77.0556 88.8789V89.693L71.8457 92.6342V91.8201L77.0556 88.8789Z" fill="white"/>
<path d="M59.957 84.9531L71.8457 91.823V92.6371L59.957 85.7672V84.9531Z" fill="#8A9A7E"/>
<path opacity="0.4" d="M59.957 84.9531L71.8457 91.823V92.6371L59.957 85.7672V84.9531Z" fill="white"/>
<path d="M65.167 82.0117L77.0556 88.8816L71.8457 91.8228L59.957 84.9529L65.167 82.0117Z" fill="#8A9A7E"/>
<path opacity="0.6" d="M65.167 82.0117L77.0556 88.8816L71.8457 91.8228L59.957 84.9529L65.167 82.0117Z" fill="white"/>
<path d="M67.5176 96.533L68.0485 96.8409V97.8107C68.3911 97.8126 68.7276 97.7208 69.0218 97.5452L69.0607 97.5205C69.1828 97.4474 69.289 97.3505 69.3729 97.2356C69.4568 97.1207 69.5167 96.9901 69.5492 96.8515C69.568 96.792 69.5775 96.7299 69.5775 96.6675V95.3438L67.5176 96.533Z" fill="#E0E0E0"/>
<path d="M44.3882 60.7747L44.4307 60.7499C44.7256 60.576 45.0617 60.4844 45.404 60.4845C45.5122 60.4825 45.6188 60.5107 45.7119 60.5659L68.6505 73.7535C68.9323 73.9166 69.1663 74.1509 69.329 74.4329C69.4917 74.7149 69.5775 75.0348 69.5778 75.3604V95.3435L67.5179 96.5328L45.7296 84.007C45.4478 83.8439 45.2138 83.6096 45.0511 83.3276C44.8883 83.0456 44.8025 82.7257 44.8023 82.4001V61.6808H43.875C43.8755 61.4984 43.923 61.3192 44.0129 61.1605C44.1028 61.0018 44.232 60.8689 44.3882 60.7747Z" fill="#E6E6E6"/>
<path d="M69.3774 74.5273C69.5072 74.7854 69.5751 75.0702 69.5756 75.3591V95.3423L67.5157 96.5315L66.7441 96.0997V76.1731L69.3774 74.5273Z" fill="#E0E0E0"/>
<path d="M68.6505 95.8782V97.2055C68.6499 97.312 68.6213 97.4166 68.5676 97.5087C68.514 97.6007 68.4371 97.6771 68.3446 97.7301C68.2522 97.7832 68.1474 97.811 68.0408 97.8108C67.9343 97.8107 67.8296 97.7826 67.7373 97.7293L44.8023 84.5417C44.5205 84.3785 44.2865 84.1443 44.1238 83.8622C43.961 83.5802 43.8752 83.2604 43.875 82.9348V81.5898L68.6505 95.8782Z" fill="#F0F0F0"/>
<path d="M43.875 61.6285C43.875 61.5216 43.9031 61.4166 43.9565 61.324C44.0099 61.2315 44.0868 61.1546 44.1793 61.1011C44.2719 61.0477 44.3769 61.0195 44.4837 61.0195C44.5906 61.0195 44.6956 61.0477 44.7882 61.1011L67.7231 74.2923C68.0054 74.4548 68.2398 74.689 68.4026 74.9711C68.5655 75.2533 68.6509 75.5734 68.6505 75.8991V95.8787L43.875 81.5762" fill="#F0F0F0"/>
<path d="M57.0781 84.9494L52.707 82.7408L53.7759 82.0117L57.9842 84.2238L57.0781 84.9494Z" fill="#E0E0E0"/>
<path d="M52.7089 82.7383L50.1818 92.783C50.143 92.9387 50.1566 93.1029 50.2206 93.25C50.2846 93.3972 50.3954 93.5192 50.5357 93.597L55.7598 96.5347C55.7598 96.5347 57.3844 85.1026 57.0835 84.9504L52.7089 82.7383Z" fill="#E6E6E6"/>
<path d="M58.5081 94.2854L56.7101 93.1953L56.3633 95.6339L58.5081 94.2854Z" fill="#F0F0F0"/>
<path d="M57.0789 84.9475L55.4649 95.9832C55.4496 96.0837 55.4641 96.1864 55.5065 96.2788C55.5489 96.3711 55.6175 96.449 55.7037 96.5029C55.7899 96.5567 55.89 96.5841 55.9916 96.5817C56.0932 96.5793 56.1919 96.5472 56.2754 96.4893L58.3495 95.0736C58.4246 95.0235 58.4863 94.9556 58.5289 94.8759C58.5715 94.7963 58.5937 94.7073 58.5937 94.617V94.4046C58.5939 94.3753 58.586 94.3466 58.5709 94.3215C58.5558 94.2964 58.534 94.276 58.508 94.2624C58.4821 94.2489 58.4529 94.2428 58.4236 94.2448C58.3944 94.2467 58.3663 94.2568 58.3424 94.2737L56.3745 95.6222L57.9956 84.2148L57.0789 84.9475Z" fill="#E0E0E0"/>
<path d="M56.9629 79.3262C56.9629 80.2925 56.2834 80.6853 55.4445 80.2004C55.0038 79.9121 54.6371 79.5242 54.3739 79.068C54.1108 78.6118 53.9586 78.1001 53.9297 77.5742C53.9297 76.608 54.6092 76.2151 55.4445 76.7C55.8863 76.9875 56.254 77.3752 56.5178 77.8315C56.7817 78.2878 56.9341 78.7999 56.9629 79.3262Z" fill="#E0E0E0"/>
<path d="M39.8711 134.122L53.7701 126.162L42.7345 120.078L29.3203 127.974L39.8711 134.122Z" fill="white"/>
<path d="M40.3531 132.795C40.3308 132.794 40.309 132.788 40.2894 132.778L32.2197 128.074C32.2036 128.067 32.1891 128.057 32.1772 128.044C32.1653 128.031 32.1563 128.015 32.1508 127.999C32.1453 127.982 32.1434 127.964 32.1452 127.947C32.147 127.929 32.1526 127.913 32.1614 127.897C32.1703 127.882 32.1822 127.869 32.1965 127.859C32.2108 127.849 32.2271 127.842 32.2444 127.838C32.2616 127.835 32.2793 127.835 32.2965 127.839C32.3136 127.843 32.3296 127.851 32.3436 127.861L40.4133 132.558C40.4275 132.566 40.44 132.577 40.4501 132.59C40.4601 132.603 40.4674 132.618 40.4717 132.633C40.476 132.649 40.4771 132.666 40.475 132.682C40.4729 132.698 40.4675 132.714 40.4593 132.728C40.4492 132.748 40.4341 132.764 40.4154 132.776C40.3967 132.788 40.3752 132.794 40.3531 132.795Z" fill="#E0E0E0"/>
<path d="M41.6616 131.993C41.6418 131.998 41.6211 131.998 41.6014 131.993L33.5423 127.272C33.5285 127.264 33.5164 127.253 33.5068 127.24C33.4971 127.228 33.4901 127.213 33.4862 127.198C33.4822 127.182 33.4814 127.166 33.4837 127.15C33.4861 127.134 33.4915 127.119 33.4998 127.105C33.5075 127.091 33.518 127.079 33.5306 127.069C33.5433 127.059 33.5578 127.052 33.5733 127.047C33.5888 127.043 33.605 127.042 33.6209 127.044C33.6369 127.046 33.6523 127.051 33.6662 127.059L41.7394 131.763C41.7676 131.78 41.7879 131.808 41.7958 131.839C41.8038 131.871 41.7988 131.905 41.7819 131.933C41.7701 131.954 41.7524 131.971 41.7309 131.982C41.7095 131.992 41.6853 131.996 41.6616 131.993Z" fill="#E0E0E0"/>
<path d="M42.965 131.224C42.9453 131.229 42.9246 131.229 42.9048 131.224L34.8316 126.506C34.8034 126.489 34.7831 126.462 34.7752 126.43C34.7672 126.398 34.7722 126.364 34.7891 126.336C34.7968 126.322 34.8073 126.309 34.8199 126.299C34.8326 126.289 34.8471 126.282 34.8626 126.278C34.8781 126.274 34.8943 126.272 34.9102 126.274C34.9262 126.277 34.9416 126.282 34.9555 126.29L43.0287 130.997C43.0531 131.01 43.0723 131.031 43.0831 131.056C43.094 131.082 43.0958 131.11 43.0884 131.136C43.0809 131.163 43.0646 131.186 43.0422 131.202C43.0197 131.218 42.9925 131.226 42.965 131.224Z" fill="#E0E0E0"/>
<path d="M44.2906 130.433C44.2683 130.432 44.2465 130.426 44.2269 130.416L36.1572 125.712C36.1291 125.695 36.1087 125.668 36.1001 125.636C36.0916 125.604 36.0955 125.571 36.1112 125.542C36.1192 125.528 36.1301 125.515 36.1431 125.505C36.1561 125.495 36.171 125.488 36.187 125.484C36.2029 125.48 36.2194 125.479 36.2356 125.482C36.2518 125.485 36.2673 125.491 36.2811 125.499L44.3508 130.203C44.3649 130.211 44.3773 130.222 44.3873 130.234C44.3973 130.247 44.4046 130.261 44.4089 130.277C44.4132 130.292 44.4144 130.308 44.4123 130.324C44.4102 130.34 44.4049 130.356 44.3968 130.37C44.3862 130.389 44.3709 130.405 44.3522 130.416C44.3336 130.427 44.3123 130.433 44.2906 130.433Z" fill="#E0E0E0"/>
<path d="M45.6174 129.621C45.5961 129.62 45.5753 129.614 45.5572 129.603L37.4839 124.899C37.4558 124.882 37.4355 124.855 37.4275 124.823C37.4196 124.791 37.4246 124.757 37.4415 124.729C37.4491 124.715 37.4596 124.703 37.4724 124.693C37.4851 124.683 37.4997 124.676 37.5153 124.672C37.531 124.668 37.5472 124.667 37.5632 124.67C37.5791 124.672 37.5943 124.678 37.6078 124.687L45.6811 129.391C45.6949 129.399 45.707 129.409 45.7166 129.422C45.7262 129.435 45.7332 129.449 45.7372 129.465C45.7411 129.48 45.742 129.496 45.7396 129.512C45.7373 129.528 45.7318 129.543 45.7235 129.557C45.713 129.576 45.6976 129.592 45.679 129.603C45.6603 129.614 45.6391 129.62 45.6174 129.621Z" fill="#E0E0E0"/>
<path d="M46.943 128.819C46.9207 128.818 46.8989 128.812 46.8793 128.801L38.8096 124.097C38.7934 124.09 38.7789 124.08 38.767 124.067C38.7551 124.054 38.7462 124.039 38.7406 124.022C38.7351 124.005 38.7332 123.988 38.735 123.97C38.7369 123.953 38.7424 123.936 38.7513 123.921C38.7601 123.906 38.7721 123.893 38.7864 123.882C38.8007 123.872 38.817 123.865 38.8342 123.862C38.8514 123.858 38.8692 123.859 38.8863 123.863C38.9034 123.867 38.9195 123.874 38.9334 123.885L47.0031 128.589C47.0173 128.596 47.0297 128.607 47.0397 128.619C47.0497 128.632 47.057 128.647 47.0613 128.662C47.0656 128.678 47.0667 128.694 47.0646 128.71C47.0626 128.726 47.0573 128.741 47.0492 128.755C47.0383 128.774 47.0229 128.789 47.0043 128.801C46.9857 128.812 46.9646 128.818 46.943 128.819Z" fill="#E0E0E0"/>
<path d="M48.2677 128.014C48.2465 128.013 48.2257 128.007 48.2076 127.996L40.1343 123.292C40.1062 123.275 40.0859 123.248 40.0779 123.216C40.07 123.184 40.075 123.151 40.0918 123.122C40.0999 123.109 40.1106 123.096 40.1233 123.087C40.1361 123.077 40.1506 123.07 40.1661 123.066C40.1816 123.062 40.1977 123.061 40.2135 123.064C40.2293 123.066 40.2445 123.072 40.2582 123.08L48.3315 127.784C48.3453 127.792 48.3574 127.802 48.367 127.815C48.3766 127.828 48.3836 127.842 48.3876 127.858C48.3915 127.873 48.3924 127.89 48.39 127.905C48.3877 127.921 48.3822 127.936 48.3739 127.95C48.364 127.97 48.3487 127.986 48.33 127.997C48.3112 128.008 48.2896 128.014 48.2677 128.014Z" fill="#E0E0E0"/>
<path d="M49.5934 127.209C49.5711 127.208 49.5493 127.202 49.5297 127.192L41.4599 122.488C41.4438 122.481 41.4293 122.471 41.4174 122.458C41.4055 122.445 41.3965 122.429 41.391 122.413C41.3855 122.396 41.3836 122.378 41.3854 122.361C41.3873 122.344 41.3928 122.327 41.4016 122.311C41.4105 122.296 41.4225 122.283 41.4368 122.273C41.4511 122.263 41.4674 122.256 41.4846 122.252C41.5018 122.249 41.5196 122.249 41.5367 122.253C41.5538 122.257 41.5699 122.265 41.5838 122.275L49.6535 126.979C49.6678 126.987 49.6803 126.998 49.6903 127.011C49.7003 127.024 49.7077 127.039 49.712 127.055C49.7162 127.07 49.7173 127.087 49.7152 127.103C49.7131 127.119 49.7078 127.135 49.6995 127.149C49.6885 127.167 49.673 127.183 49.6544 127.193C49.6358 127.204 49.6148 127.209 49.5934 127.209Z" fill="#E0E0E0"/>
<path d="M50.9181 126.408C50.8969 126.408 50.8761 126.402 50.858 126.391L42.7847 121.687C42.7566 121.67 42.7363 121.642 42.7283 121.611C42.7203 121.579 42.7254 121.545 42.7422 121.517C42.7503 121.503 42.761 121.491 42.7737 121.481C42.7865 121.472 42.801 121.465 42.8165 121.461C42.832 121.457 42.8481 121.456 42.8639 121.458C42.8797 121.461 42.8949 121.466 42.9086 121.474L50.9818 126.189C51.01 126.206 51.0303 126.233 51.0382 126.265C51.0462 126.297 51.0412 126.331 51.0243 126.359C51.0123 126.375 50.9962 126.389 50.9777 126.397C50.9591 126.406 50.9386 126.41 50.9181 126.408Z" fill="#E0E0E0"/>
<path d="M29.3633 127.938L39.9105 134.085V143.535L29.3633 137.71V127.938Z" fill="#FAFAFA"/>
<path d="M39.9102 134.085L53.8092 126.125V135.465L39.9102 143.535V134.085Z" fill="#E6E6E6"/>
<path d="M37.6406 135.006L39.9094 136.33L44.8184 133.52L39.9094 137.048L37.6406 135.006Z" fill="#E0E0E0"/>
<path d="M37.6406 138.297L39.9093 139.621L42.6842 138.035L39.9093 140.339L37.6406 138.297Z" fill="#E0E0E0"/>
<path d="M41.2305 136.775L42.9648 137.292L44.292 135.285L41.2305 136.775Z" fill="#E0E0E0"/>
<path d="M41.2305 136.773L46.4652 133.793L43.8496 136.773H41.2305Z" fill="white"/>
<path d="M49.0664 130.367L50.2946 130.735L51.2325 129.312L49.0664 130.367Z" fill="#E0E0E0"/>
<path d="M49.0664 130.367L52.7721 128.258L50.9175 130.367H49.0664Z" fill="white"/>
<path d="M46.416 137.395L47.6442 137.763L48.5821 136.34L46.416 137.395Z" fill="#E0E0E0"/>
<path d="M46.416 137.395L50.1217 135.285L48.2671 137.395H46.416Z" fill="white"/>
<path d="M61.3862 155.839L49.2533 148.761C49.2261 148.745 49.2036 148.722 49.188 148.695C49.1723 148.667 49.1641 148.637 49.1641 148.605C49.1641 148.574 49.1723 148.543 49.188 148.515C49.2036 148.488 49.2261 148.465 49.2533 148.449L62.7028 140.16L61.3862 155.839Z" fill="#8A9A7E"/>
<path opacity="0.4" d="M61.3862 155.839L49.2533 148.761C49.2261 148.745 49.2036 148.722 49.188 148.695C49.1723 148.667 49.1641 148.637 49.1641 148.605C49.1641 148.574 49.1723 148.543 49.188 148.515C49.2036 148.488 49.2261 148.465 49.2533 148.449L62.7028 140.16L61.3862 155.839Z" fill="black"/>
<path d="M61.3867 155.842L74.9141 148.01V144.449L61.3867 152.25V155.842Z" fill="#8A9A7E"/>
<path opacity="0.2" d="M61.3867 155.842L74.9141 148.01V144.449L61.3867 152.25V155.842Z" fill="black"/>
<path d="M72.2722 148.558L66.9313 151.644C66.5773 151.849 66.2871 151.644 66.2871 151.156C66.2904 150.915 66.3504 150.678 66.4623 150.465C66.5742 150.251 66.7349 150.067 66.9313 149.928L72.2722 146.845C72.6261 146.64 72.9163 146.845 72.9163 147.33C72.9122 147.57 72.8518 147.807 72.74 148.02C72.6281 148.233 72.4679 148.418 72.2722 148.558Z" fill="#E6E6E6"/>
<path d="M65.5045 151.608C65.4904 151.866 65.4158 152.117 65.2867 152.341C65.1575 152.565 64.9775 152.755 64.7612 152.897C64.3542 153.134 64.0215 152.939 64.0215 152.468C64.0354 152.211 64.1096 151.96 64.2381 151.736C64.3666 151.512 64.5457 151.322 64.7612 151.18C65.1718 150.943 65.5045 151.134 65.5045 151.608Z" fill="#E6E6E6"/>
<path d="M61.3875 152.25L49.3006 146.569C49.2718 146.554 49.2476 146.531 49.2308 146.503C49.214 146.475 49.2051 146.443 49.2051 146.41C49.2051 146.378 49.214 146.345 49.2308 146.317C49.2476 146.289 49.2718 146.266 49.3006 146.251L62.2617 138.542C62.3349 138.498 62.4179 138.473 62.5032 138.469C62.5886 138.466 62.6735 138.483 62.7502 138.521L74.9326 144.449L61.3875 152.25Z" fill="#8A9A7E"/>
<path d="M50.0781 146.934V148.459L60.0909 154.122V151.637L50.0781 146.934Z" fill="#F5F5F5"/>
<path d="M60.0918 154.125L61.3872 153.318V152.249L60.0918 151.641V154.125Z" fill="#E0E0E0"/>
<path d="M49.1973 145.095V141.148H71.2545C71.3324 141.148 73.7002 142.38 74.7478 142.918C74.795 142.945 74.8342 142.983 74.8616 143.03C74.8889 143.076 74.9033 143.13 74.9033 143.184C74.9033 143.238 74.8889 143.291 74.8616 143.337C74.8342 143.384 74.795 143.423 74.7478 143.449L61.677 150.839C61.5853 150.892 61.4821 150.92 61.3766 150.924C61.2711 150.927 61.1664 150.904 61.0718 150.857L49.1973 145.095Z" fill="#8A9A7E"/>
<path opacity="0.4" d="M49.1973 145.095V141.148H71.2545C71.3324 141.148 73.7002 142.38 74.7478 142.918C74.795 142.945 74.8342 142.983 74.8616 143.03C74.8889 143.076 74.9033 143.13 74.9033 143.184C74.9033 143.238 74.8889 143.291 74.8616 143.337C74.8342 143.384 74.795 143.423 74.7478 143.449L61.677 150.839C61.5853 150.892 61.4821 150.92 61.3766 150.924C61.2711 150.927 61.1664 150.904 61.0718 150.857L49.1973 145.095Z" fill="black"/>
<path d="M61.3867 149.92L73.9019 142.881V141.352L61.3867 148.009V149.92Z" fill="#E0E0E0"/>
<path d="M49.1973 145.095L52.4712 143.18L49.1973 141.148V145.095Z" fill="#8A9A7E"/>
<path opacity="0.6" d="M49.1973 145.095L52.4712 143.18L49.1973 141.148V145.095Z" fill="black"/>
<path d="M51.2637 142.43V144.61L61.3862 149.919V148.008L51.2637 142.43Z" fill="#F5F5F5"/>
<path d="M49.1973 141.148L60.9656 148.16C61.0935 148.237 61.2393 148.28 61.3888 148.285C61.5383 148.289 61.6864 148.255 61.8186 148.184L74.7938 141.407C74.8386 141.38 74.8756 141.342 74.9013 141.297C74.9271 141.252 74.9406 141.2 74.9406 141.148C74.9406 141.096 74.9271 141.045 74.9013 141C74.8756 140.954 74.8386 140.917 74.7938 140.89L62.9547 133.195L49.1973 141.148Z" fill="#8A9A7E"/>
<path d="M61.3862 146.937L49.2533 139.858C49.2261 139.843 49.2036 139.82 49.188 139.792C49.1723 139.765 49.1641 139.734 49.1641 139.703C49.1641 139.671 49.1723 139.64 49.188 139.613C49.2036 139.586 49.2261 139.563 49.2533 139.547L62.7028 131.258L61.3862 146.937Z" fill="#8A9A7E"/>
<path opacity="0.4" d="M61.3862 146.937L49.2533 139.858C49.2261 139.843 49.2036 139.82 49.188 139.792C49.1723 139.765 49.1641 139.734 49.1641 139.703C49.1641 139.671 49.1723 139.64 49.188 139.613C49.2036 139.586 49.2261 139.563 49.2533 139.547L62.7028 131.258L61.3862 146.937Z" fill="black"/>
<path d="M61.3867 146.936L74.9141 139.104V135.543L61.3867 143.344V146.936Z" fill="#8A9A7E"/>
<path opacity="0.2" d="M61.3867 146.936L74.9141 139.104V135.543L61.3867 143.344V146.936Z" fill="black"/>
<path d="M72.2722 139.636L66.9313 142.718C66.5773 142.924 66.2871 142.718 66.2871 142.233C66.2904 141.992 66.3504 141.756 66.4623 141.542C66.5742 141.329 66.7349 141.145 66.9313 141.005L72.2722 137.919C72.6261 137.714 72.9163 137.919 72.9163 138.407C72.9122 138.648 72.8518 138.885 72.74 139.098C72.6281 139.311 72.4679 139.495 72.2722 139.636Z" fill="#E6E6E6"/>
<path d="M65.5045 142.702C65.491 142.96 65.4166 143.21 65.2874 143.434C65.1582 143.657 64.9779 143.847 64.7612 143.987C64.3542 144.224 64.0215 144.033 64.0215 143.558C64.0354 143.301 64.1096 143.051 64.2381 142.828C64.3666 142.605 64.5458 142.415 64.7612 142.274C65.1718 142.037 65.5045 142.228 65.5045 142.702Z" fill="#E6E6E6"/>
<path d="M61.3869 143.342L49.3 137.661C49.2713 137.645 49.2473 137.622 49.2306 137.593C49.2139 137.565 49.2051 137.533 49.2051 137.5C49.2051 137.467 49.2139 137.435 49.2306 137.406C49.2473 137.378 49.2713 137.355 49.3 137.339L62.2611 129.63C62.3345 129.587 62.4177 129.562 62.5031 129.559C62.5884 129.556 62.6732 129.574 62.7496 129.612L74.932 135.541L61.3869 143.342Z" fill="#8A9A7E"/>
<path d="M50.0781 138.027V139.556L60.0909 145.219V142.735L50.0781 138.027Z" fill="#F5F5F5"/>
<path d="M60.0918 145.219L61.3872 144.408V143.343L60.0918 142.734V145.219Z" fill="#E0E0E0"/>
<path d="M49.2148 135.93V131.98H71.2721C71.3464 131.98 73.7142 133.216 74.7619 133.75C74.8091 133.776 74.8485 133.814 74.876 133.861C74.9034 133.907 74.9179 133.96 74.9179 134.014C74.9179 134.068 74.9034 134.121 74.876 134.167C74.8485 134.213 74.8091 134.252 74.7619 134.278L61.6875 141.671C61.5944 141.719 61.4913 141.744 61.3867 141.744C61.282 141.744 61.1789 141.719 61.0858 141.671L49.2148 135.93Z" fill="#8A9A7E"/>
<path opacity="0.4" d="M49.2148 135.93V131.98H71.2721C71.3464 131.98 73.7142 133.216 74.7619 133.75C74.8091 133.776 74.8485 133.814 74.876 133.861C74.9034 133.907 74.9179 133.96 74.9179 134.014C74.9179 134.068 74.9034 134.121 74.876 134.167C74.8485 134.213 74.8091 134.252 74.7619 134.278L61.6875 141.671C61.5944 141.719 61.4913 141.744 61.3867 141.744C61.282 141.744 61.1789 141.719 61.0858 141.671L49.2148 135.93Z" fill="black"/>
<path d="M61.4004 140.752L73.9191 133.713V132.184L61.4004 138.845V140.752Z" fill="#E0E0E0"/>
<path d="M49.2148 135.93L52.4852 134.016L49.2148 131.98V135.93Z" fill="#8A9A7E"/>
<path opacity="0.6" d="M49.2148 135.93L52.4852 134.016L49.2148 131.98V135.93Z" fill="black"/>
<path d="M51.2773 133.266V135.446L61.3999 140.751V138.844L51.2773 133.266Z" fill="#F5F5F5"/>
<path d="M49.2148 131.982L60.9832 138.997C61.1113 139.074 61.257 139.117 61.4064 139.121C61.5558 139.126 61.7038 139.092 61.8362 139.022L74.8114 132.227C74.8571 132.201 74.8955 132.165 74.9228 132.12C74.9501 132.076 74.9654 132.025 74.9672 131.973C74.969 131.921 74.9572 131.869 74.933 131.823C74.9088 131.777 74.873 131.738 74.8291 131.71L62.9865 124.012L49.2148 131.982Z" fill="#8A9A7E"/>
<path d="M61.3983 137.77L49.2689 130.691C49.2418 130.675 49.2192 130.652 49.2036 130.625C49.1879 130.598 49.1797 130.567 49.1797 130.535C49.1797 130.504 49.1879 130.473 49.2036 130.445C49.2192 130.418 49.2418 130.395 49.2689 130.379L62.7185 122.094L61.3983 137.77Z" fill="#8A9A7E"/>
<path opacity="0.4" d="M61.3983 137.77L49.2689 130.691C49.2418 130.675 49.2192 130.652 49.2036 130.625C49.1879 130.598 49.1797 130.567 49.1797 130.535C49.1797 130.504 49.1879 130.473 49.2036 130.445C49.2192 130.418 49.2418 130.395 49.2689 130.379L62.7185 122.094L61.3983 137.77Z" fill="black"/>
<path d="M61.4004 137.769L74.9278 129.936V126.379L61.4004 134.176V137.769Z" fill="#8A9A7E"/>
<path opacity="0.2" d="M61.4004 137.769L74.9278 129.936V126.379L61.4004 134.176V137.769Z" fill="black"/>
<path d="M72.2936 130.487L66.9492 133.57C66.5953 133.775 66.3086 133.57 66.3086 133.085C66.312 132.844 66.3717 132.607 66.4829 132.393C66.5942 132.179 66.7538 131.995 66.9492 131.853L72.2936 128.771C72.6476 128.565 72.9343 128.771 72.9343 129.255C72.9308 129.496 72.8711 129.733 72.7599 129.947C72.6487 130.161 72.489 130.346 72.2936 130.487Z" fill="#E6E6E6"/>
<path d="M65.5197 133.539C65.5054 133.797 65.4307 134.047 65.3015 134.27C65.1724 134.494 64.9925 134.683 64.7765 134.824C64.3659 135.061 64.0332 134.87 64.0332 134.396C64.0473 134.138 64.1219 133.887 64.251 133.663C64.3801 133.439 64.5601 133.249 64.7765 133.107C65.187 132.874 65.5197 133.065 65.5197 133.539Z" fill="#E6E6E6"/>
<path d="M61.399 134.176L49.3156 128.513C49.2869 128.497 49.2629 128.474 49.2462 128.445C49.2295 128.417 49.2207 128.385 49.2207 128.352C49.2207 128.319 49.2295 128.287 49.2462 128.258C49.2629 128.23 49.2869 128.207 49.3156 128.191L62.2767 120.482C62.3502 120.439 62.4331 120.414 62.5183 120.411C62.6035 120.407 62.6883 120.424 62.7652 120.461L74.9299 126.379L61.399 134.176Z" fill="#8A9A7E"/>
<path d="M50.0977 128.863V130.389L60.1105 136.055V133.567L50.0977 128.863Z" fill="#F5F5F5"/>
<path d="M60.1113 136.055L61.4032 135.244V134.175L60.1113 133.566V136.055Z" fill="#E0E0E0"/>
<path d="M61.0625 123.919L74.9615 115.959L63.9223 109.875L50.5117 117.771L61.0625 123.919Z" fill="#FAFAFA"/>
<path d="M61.5422 122.588C61.5225 122.593 61.5018 122.593 61.4821 122.588L53.4123 117.87C53.3981 117.862 53.3856 117.851 53.3756 117.839C53.3656 117.826 53.3582 117.811 53.3539 117.795C53.3496 117.779 53.3485 117.763 53.3507 117.747C53.3528 117.73 53.3581 117.715 53.3663 117.7C53.3744 117.687 53.3851 117.675 53.3978 117.665C53.4106 117.655 53.4251 117.648 53.4406 117.644C53.4561 117.64 53.4722 117.64 53.488 117.642C53.5038 117.644 53.519 117.65 53.5327 117.658L61.6059 122.362C61.6201 122.37 61.6325 122.38 61.6425 122.393C61.6524 122.405 61.6598 122.42 61.6641 122.435C61.6684 122.451 61.6695 122.467 61.6674 122.483C61.6653 122.499 61.6601 122.514 61.6519 122.528C61.6401 122.547 61.6239 122.562 61.6047 122.572C61.5856 122.583 61.5641 122.588 61.5422 122.588Z" fill="#E0E0E0"/>
<path d="M62.8687 121.787C62.849 121.792 62.8283 121.792 62.8086 121.787L54.7353 117.083C54.7073 117.066 54.6868 117.039 54.6783 117.007C54.6697 116.976 54.6736 116.942 54.6893 116.913C54.6973 116.899 54.7082 116.886 54.7212 116.876C54.7342 116.866 54.7492 116.859 54.7651 116.855C54.781 116.851 54.7975 116.85 54.8137 116.853C54.8299 116.856 54.8454 116.862 54.8592 116.871L62.9289 121.574C62.9529 121.587 62.9718 121.608 62.9827 121.633C62.9935 121.657 62.9957 121.685 62.9887 121.712C62.9817 121.738 62.9661 121.761 62.9443 121.777C62.9225 121.793 62.8959 121.802 62.8687 121.801V121.787Z" fill="#E0E0E0"/>
<path d="M64.1584 121.019C64.1386 121.025 64.1179 121.025 64.0982 121.019L56.0249 116.316C55.9968 116.299 55.9765 116.271 55.9685 116.24C55.9606 116.208 55.9656 116.174 55.9825 116.146C55.9905 116.132 56.0012 116.12 56.014 116.11C56.0267 116.101 56.0413 116.094 56.0567 116.09C56.0722 116.086 56.0883 116.085 56.1042 116.087C56.12 116.09 56.1351 116.095 56.1488 116.103L64.2221 120.807C64.2502 120.824 64.2705 120.851 64.2785 120.883C64.2864 120.915 64.2814 120.949 64.2646 120.977C64.2518 120.992 64.2354 121.004 64.2168 121.012C64.1983 121.019 64.1782 121.022 64.1584 121.019Z" fill="#E0E0E0"/>
<path d="M65.485 120.216C65.4627 120.215 65.4409 120.209 65.4213 120.199L57.3516 115.495C57.3375 115.487 57.325 115.476 57.3151 115.464C57.3051 115.451 57.2977 115.437 57.2934 115.421C57.2891 115.406 57.288 115.39 57.2901 115.374C57.2922 115.358 57.2974 115.342 57.3056 115.328C57.3136 115.314 57.3245 115.302 57.3374 115.292C57.3503 115.282 57.3651 115.274 57.3809 115.27C57.3967 115.266 57.4132 115.265 57.4294 115.267C57.4457 115.269 57.4613 115.274 57.4754 115.282L65.5452 119.986C65.5732 120.003 65.5937 120.03 65.6022 120.062C65.6108 120.094 65.6068 120.127 65.5912 120.156C65.5799 120.174 65.5643 120.189 65.5458 120.2C65.5272 120.21 65.5063 120.216 65.485 120.216Z" fill="#E0E0E0"/>
<path d="M66.8105 119.415C66.789 119.417 66.7677 119.41 66.7503 119.398L58.6771 114.694C58.6632 114.686 58.6512 114.675 58.6415 114.662C58.6319 114.649 58.6249 114.635 58.6209 114.619C58.617 114.604 58.6161 114.588 58.6185 114.572C58.6208 114.556 58.6263 114.541 58.6346 114.527C58.6423 114.513 58.6528 114.501 58.6654 114.491C58.678 114.481 58.6925 114.473 58.708 114.469C58.7235 114.465 58.7398 114.464 58.7557 114.466C58.7717 114.468 58.787 114.473 58.8009 114.481L66.8742 119.185C66.9023 119.202 66.9226 119.229 66.9306 119.261C66.9386 119.293 66.9335 119.327 66.9167 119.355C66.9059 119.374 66.8904 119.389 66.8718 119.4C66.8531 119.41 66.8319 119.416 66.8105 119.415Z" fill="#E0E0E0"/>
<path d="M68.1318 118.611C68.1123 118.618 68.0913 118.618 68.0717 118.611L60.002 113.908C59.9879 113.9 59.9754 113.889 59.9654 113.877C59.9555 113.864 59.9481 113.85 59.9438 113.834C59.9395 113.819 59.9384 113.802 59.9405 113.786C59.9426 113.77 59.9478 113.755 59.956 113.741C59.9729 113.713 60 113.693 60.0317 113.684C60.0633 113.676 60.097 113.68 60.1258 113.695L68.2062 118.381C68.2342 118.398 68.2547 118.425 68.2632 118.457C68.2718 118.489 68.2678 118.522 68.2522 118.551C68.2395 118.571 68.2215 118.587 68.2003 118.598C68.1791 118.608 68.1555 118.613 68.1318 118.611Z" fill="#E0E0E0"/>
<path d="M69.4596 117.806C69.4381 117.807 69.4168 117.801 69.3994 117.788L61.3262 113.091C61.3121 113.083 61.2997 113.073 61.2897 113.06C61.2797 113.048 61.2723 113.033 61.268 113.018C61.2637 113.002 61.2626 112.986 61.2647 112.97C61.2668 112.954 61.272 112.939 61.2802 112.925C61.2971 112.897 61.3243 112.876 61.3559 112.868C61.3875 112.859 61.4213 112.863 61.4501 112.879L69.5198 117.583C69.534 117.591 69.5465 117.601 69.5565 117.614C69.5666 117.627 69.5739 117.642 69.5782 117.658C69.5825 117.674 69.5836 117.69 69.5815 117.706C69.5793 117.723 69.574 117.738 69.5658 117.752C69.5542 117.77 69.5383 117.784 69.5197 117.793C69.5011 117.802 69.4804 117.807 69.4596 117.806Z" fill="#E0E0E0"/>
<path d="M70.7858 117.002C70.7648 117.007 70.743 117.007 70.7221 117.002L62.6524 112.294C62.6382 112.287 62.6258 112.276 62.6158 112.263C62.6058 112.251 62.5985 112.236 62.5942 112.221C62.5899 112.205 62.5888 112.189 62.5909 112.173C62.5929 112.157 62.5982 112.142 62.6063 112.128C62.6233 112.1 62.6504 112.079 62.6821 112.071C62.7137 112.062 62.7474 112.066 62.7762 112.082L70.846 116.786C70.874 116.803 70.8944 116.83 70.903 116.861C70.9116 116.893 70.9076 116.927 70.892 116.956C70.8792 116.971 70.8629 116.983 70.8444 116.991C70.8259 116.999 70.8059 117.003 70.7858 117.002Z" fill="#E0E0E0"/>
<path d="M72.1002 116.198C72.0793 116.203 72.0575 116.203 72.0365 116.198L63.9668 111.494C63.9526 111.486 63.9402 111.475 63.9302 111.462C63.9202 111.449 63.9129 111.434 63.9086 111.419C63.9044 111.403 63.9032 111.386 63.9053 111.37C63.9074 111.354 63.9127 111.338 63.9208 111.324C63.9289 111.31 63.9398 111.298 63.9527 111.288C63.9657 111.278 63.9804 111.27 63.9962 111.266C64.012 111.262 64.0285 111.261 64.0447 111.263C64.0609 111.265 64.0765 111.27 64.0907 111.278L72.1604 115.982C72.1746 115.99 72.1871 116.001 72.1972 116.014C72.2072 116.027 72.2146 116.042 72.2188 116.057C72.2231 116.073 72.2242 116.09 72.2221 116.106C72.22 116.122 72.2146 116.138 72.2064 116.152C72.194 116.168 72.1778 116.18 72.1592 116.189C72.1407 116.197 72.1204 116.2 72.1002 116.198Z" fill="#E0E0E0"/>
<path d="M50.5547 117.73L61.1055 123.882V133.332L50.5547 127.506V117.73Z" fill="#F0F0F0"/>
<path d="M61.1016 123.882L75.0006 115.918V125.262L61.1016 133.332V123.882Z" fill="#E6E6E6"/>
<path d="M58.8359 124.803L61.1047 126.123L66.0137 123.312L61.1047 126.841L58.8359 124.803Z" fill="#E0E0E0"/>
<path d="M58.8359 128.094L61.1047 129.417L63.876 127.828L61.1047 130.136L58.8359 128.094Z" fill="#E0E0E0"/>
<path d="M62.4219 126.568L64.1562 127.085L65.4834 125.078L62.4219 126.568Z" fill="#E0E0E0"/>
<path d="M62.4219 126.57L67.6566 123.586L65.0375 126.57H62.4219Z" fill="white"/>
<path d="M70.2578 120.164L71.486 120.529L72.4239 119.109L70.2578 120.164Z" fill="#E0E0E0"/>
<path d="M70.2578 120.164L73.9635 118.051L72.1124 120.164H70.2578Z" fill="white"/>
<path d="M67.6074 127.191L68.8356 127.556L69.7735 126.137L67.6074 127.191Z" fill="#E0E0E0"/>
<path d="M67.6074 127.188L71.3131 125.078L69.4585 127.188H67.6074Z" fill="white"/>
<path d="M54.3392 127.482L53.4402 127.751L52.75 126.707L54.3392 127.482Z" fill="#E0E0E0"/>
<path d="M54.3393 127.484L51.6211 125.934L52.9802 127.484H54.3393Z" fill="white"/>
<path d="M57.8809 123.773L56.6528 124.138L55.7148 122.719L57.8809 123.773Z" fill="#E0E0E0"/>
<path d="M57.8795 123.774L54.1738 121.664L56.0284 123.774H57.8795Z" fill="white"/>
<path d="M144.294 142.934L143.115 142.442L143.42 141.012L144.294 142.934Z" fill="#7D755C"/>
<path d="M145.621 139.086L146.124 141.333L144.294 142.933L143.42 141.011L145.621 139.086Z" fill="#4D493E"/>
<path d="M140.574 136.751C140.225 137.682 139.976 138.648 139.831 139.632C139.587 141.027 138.94 142.32 137.969 143.352C137.109 144.145 135.573 145.971 138.238 146.297C140.995 146.651 143.307 144.357 143.342 143.094C143.377 141.83 143.714 140.839 144.404 140.262C145.094 139.685 145.632 139.094 145.632 139.094C145.632 139.094 144.404 134.684 143.353 134.932C142.301 135.18 140.574 136.751 140.574 136.751Z" fill="#263238"/>
<path d="M141.638 132.437C140.845 131.241 139.949 129.832 139.227 128.544C137.528 125.486 134.955 120.63 132.432 119.66V99.0436L122.741 98.5977C122.741 98.5977 119.556 109.892 124.082 118.97C127.317 125.472 134.347 132.25 138.059 135.57C139.22 135.389 141.344 134.72 141.638 132.437Z" fill="#4D493E"/>
<path d="M143.598 135.281C143.598 135.281 142.713 134.06 141.637 132.449C141.343 134.732 139.22 135.39 138.059 135.582C139.531 136.895 140.49 137.67 140.49 137.67C140.49 137.67 143.647 138.098 143.598 135.281Z" fill="#D9A1A1"/>
<path d="M123.72 118.173L126.318 105.353C126.318 105.353 124.379 104.221 124.379 101.227C124.379 101.227 124.134 104.115 125.44 106.203L123.207 116.92C123.363 117.338 123.536 117.759 123.72 118.173Z" fill="#7D755C"/>
<path d="M132.435 119.65V118.906L131.211 119.699L128.953 123.192L128.74 125.935C129.629 127.029 130.556 128.091 131.48 129.096L131.664 124.601L133.363 120.163C133.077 119.952 132.766 119.779 132.435 119.65Z" fill="#7D755C"/>
<path d="M123.519 153.675L122.322 152.996L123.519 151.41V153.675Z" fill="#7D755C"/>
<path d="M125.261 150.637V152.644L123.52 153.677V151.412L125.261 150.637Z" fill="#4D493E"/>
<path d="M121.481 146.381C121.481 146.381 120.801 146.105 120.153 148.466C119.506 150.826 116.823 152.359 116.143 152.77C115.464 153.18 113.666 154.893 116.143 155.778C118.621 156.663 121.774 155.36 122.514 153.87C123.254 152.38 123.633 151.474 125.257 150.635V147.623C125.257 147.043 124.648 146.622 124.263 146.523C123.877 146.423 121.481 146.381 121.481 146.381Z" fill="#263238"/>
<path d="M135.298 98.5962L124.38 97.8281V101.226C124.38 104.22 126.319 105.353 126.319 105.353L123.017 121.634C122.857 122.419 122.748 123.213 122.691 124.012L121.258 144.441C121.798 144.911 122.451 145.233 123.152 145.375C123.854 145.518 124.58 145.477 125.261 145.255C126.004 142.98 127.271 139.178 128.765 135.023C130.563 130.008 130.644 126.529 130.573 125.113C130.547 124.617 130.635 124.121 130.832 123.665C131.426 122.285 132.874 118.93 135.298 113.27C139.815 102.758 135.298 98.5962 135.298 98.5962Z" fill="#4D493E"/>
<path d="M121.256 144.457L121.051 147.391C121.235 147.69 121.497 147.933 121.809 148.094C122.121 148.255 122.47 148.327 122.82 148.304C124.116 148.304 124.569 147.465 124.569 147.465C124.569 147.465 124.827 146.648 125.277 145.271C124.594 145.496 123.864 145.539 123.159 145.396C122.454 145.253 121.798 144.93 121.256 144.457Z" fill="#D9A1A1"/>
<path d="M125.465 82.8711C125.465 82.8711 122.414 82.9879 121.349 85.2248C120.284 87.4616 118.762 91.9814 118.762 91.9814L122.853 92.9016L125.465 82.8711Z" fill="#8A9A7E"/>
<path opacity="0.2" d="M125.465 82.8711C125.465 82.8711 122.414 82.9879 121.349 85.2248C120.284 87.4616 118.762 91.9814 118.762 91.9814L122.853 92.9016L125.465 82.8711Z" fill="white"/>
<path d="M131.988 83.3307L135.297 83.9041V91.3367L134.264 95.2866C134.264 95.2866 134.459 97.4102 135.297 98.5853C135.297 98.5853 129.408 103.052 122.743 98.5853C122.743 98.5853 123.002 94.692 123.002 93.6019C123.002 93.6019 120.744 92.2428 120.967 90.1723C121.19 88.1018 125.465 82.86 125.465 82.86L127.815 82.8281L131.988 83.3307Z" fill="#8A9A7E"/>
<path opacity="0.4" d="M131.988 83.3307L135.297 83.9041V91.3367L134.264 95.2866C134.264 95.2866 134.459 97.4102 135.297 98.5853C135.297 98.5853 129.408 103.052 122.743 98.5853C122.743 98.5853 123.002 94.692 123.002 93.6019C123.002 93.6019 120.744 92.2428 120.967 90.1723C121.19 88.1018 125.465 82.86 125.465 82.86L127.815 82.8281L131.988 83.3307Z" fill="white"/>
<path d="M126.303 68.1418C126.303 68.1418 123.443 67.1508 122.746 70.0779C122.049 73.0049 124.201 75.8435 120.977 76.8026C120.977 76.8026 122.877 78.3847 124.548 75.4329L125.964 81.4498C125.964 81.4498 125.964 81.779 125.464 82.0302C125.464 82.0302 133.605 83.8353 135.145 79.7828C135.361 80.0164 135.509 80.3054 135.571 80.6177C135.634 80.93 135.608 81.2535 135.499 81.5524C135.499 81.5524 137.895 80.5827 137.222 77.4786C137.222 77.4786 139.116 77.4255 139.565 75.8824C139.565 75.8824 136.536 76.0275 136.553 72.697C136.574 68.832 134.539 69.3912 134.539 69.3912C134.539 69.3912 132.051 65.6855 126.303 68.1418Z" fill="#2E2A24"/>
<path d="M127.816 80.2605V82.8407C127.816 82.8407 125.497 86.8366 126.4 87.0879C128.127 87.5728 131.971 83.3256 131.971 83.3256V77.875L127.816 80.2605Z" fill="#D9A1A1"/>
<path d="M131.942 77.0109V77.1631C131.011 80.8299 128.594 81.6298 127.815 81.8174L127.787 76.1544L131.822 76.1367L131.942 77.0109Z" fill="#AF6666"/>
<path d="M128.078 68.8511C126.539 68.9785 123.335 70.104 123.286 74.1601C123.236 78.2162 123.859 81.3202 125.965 81.4476C128.071 81.575 132.778 79.678 132.994 74.4043C133.21 69.1307 129.582 68.7201 128.078 68.8511Z" fill="#D9A1A1"/>
<path d="M126.128 75.7891L126.163 78.1746L124.762 77.7676L126.128 75.7891Z" fill="#AF6666"/>
<path d="M128.227 75.726C128.217 75.8479 128.161 75.9615 128.071 76.0442C127.981 76.127 127.863 76.1729 127.741 76.1729C127.618 76.1729 127.5 76.127 127.41 76.0442C127.32 75.9615 127.264 75.8479 127.254 75.726C127.253 75.5968 127.303 75.4723 127.393 75.3796C127.483 75.2869 127.606 75.2333 127.735 75.2305C127.8 75.2296 127.865 75.2417 127.925 75.2663C127.986 75.2909 128.041 75.3275 128.087 75.3737C128.132 75.42 128.169 75.475 128.193 75.5355C128.217 75.5961 128.229 75.6609 128.227 75.726Z" fill="#263238"/>
<path d="M125.028 75.4346C125.029 75.5312 125.002 75.626 124.949 75.7071C124.897 75.7882 124.821 75.8519 124.733 75.8901C124.644 75.9284 124.546 75.9395 124.451 75.922C124.356 75.9045 124.268 75.8593 124.199 75.792C124.13 75.7246 124.082 75.6383 124.062 75.5438C124.041 75.4494 124.05 75.3511 124.085 75.2613C124.121 75.1715 124.182 75.0943 124.262 75.0395C124.341 74.9847 124.435 74.9547 124.532 74.9532C124.596 74.9518 124.66 74.9632 124.72 74.9867C124.78 75.0102 124.834 75.0454 124.881 75.0902C124.927 75.135 124.963 75.1885 124.989 75.2476C125.014 75.3068 125.027 75.3703 125.028 75.4346Z" fill="#263238"/>
<path d="M123.931 74.4357L124.872 73.8588C124.872 73.8588 124.518 73.4836 124.143 73.7172C124.039 73.8015 123.963 73.9153 123.926 74.0435C123.888 74.1718 123.89 74.3085 123.931 74.4357Z" fill="#8A9A7E"/>
<path d="M123.931 74.4357L124.872 73.8588C124.872 73.8588 124.518 73.4836 124.143 73.7172C124.039 73.8015 123.963 73.9153 123.926 74.0435C123.888 74.1718 123.89 74.3085 123.931 74.4357Z" fill="#263238"/>
<path d="M130.618 75.5082C130.618 75.5082 130.522 77.2177 131.506 77.2177H133.435V73.958C133.435 70.3018 130.664 66.4829 124.764 69.5019C124.764 69.5019 124.484 74.3827 130.618 75.5082Z" fill="#2E2A24"/>
<path d="M131.499 77.0133C131.49 76.6479 131.562 76.2852 131.711 75.9515C131.784 75.7389 131.918 75.5524 132.096 75.4152C132.274 75.278 132.489 75.1962 132.713 75.1799C133.863 75.1622 134.005 76.27 133.987 76.6629C133.934 77.6964 133.088 78.8042 131.509 78.829L131.499 77.0133Z" fill="#D9A1A1"/>
<path d="M127.409 78.9312C127.409 79.0103 127.386 79.0876 127.342 79.1534C127.298 79.2192 127.235 79.2704 127.162 79.3007C127.089 79.331 127.009 79.3389 126.931 79.3235C126.854 79.308 126.782 79.2699 126.727 79.214C126.671 79.1581 126.632 79.0868 126.617 79.0092C126.602 78.9316 126.61 78.8512 126.64 78.7781C126.67 78.7051 126.721 78.6426 126.787 78.5986C126.853 78.5547 126.93 78.5313 127.009 78.5312C127.115 78.5313 127.217 78.5734 127.292 78.6484C127.367 78.7234 127.409 78.8251 127.409 78.9312Z" fill="#AF6666"/>
<path d="M135.298 83.9062C135.298 83.9062 132.58 84.8937 133.769 89.6506C134.958 94.4075 136.101 98.3893 136.101 98.3893L131.369 101.221C131.369 101.221 133.089 102.045 132.703 105.079C132.703 105.079 138.89 103.55 140.324 102.509C141.757 101.469 141.269 98.4282 140.929 96.7541C140.589 95.08 138.989 88.2844 138.745 87.3607C138.501 86.4369 137.779 84.3381 135.298 83.9062Z" fill="#8A9A7E"/>
<path opacity="0.2" d="M135.298 83.9062C135.298 83.9062 132.58 84.8937 133.769 89.6506C134.958 94.4075 136.101 98.3893 136.101 98.3893L131.369 101.221C131.369 101.221 133.089 102.045 132.703 105.079C132.703 105.079 138.89 103.55 140.324 102.509C141.757 101.469 141.269 98.4282 140.929 96.7541C140.589 95.08 138.989 88.2844 138.745 87.3607C138.501 86.4369 137.779 84.3381 135.298 83.9062Z" fill="white"/>
<path d="M136.104 98.3904C137.041 98.3112 137.978 98.5411 138.772 99.0451C138.42 98.6229 137.981 98.2816 137.485 98.0446C136.989 97.8076 136.448 97.6804 135.898 97.6719L136.104 98.3904Z" fill="#8A9A7E"/>
<path d="M116.597 109.797L104.464 102.718C104.437 102.702 104.415 102.679 104.399 102.652C104.383 102.625 104.375 102.594 104.375 102.562C104.375 102.531 104.383 102.5 104.399 102.472C104.415 102.445 104.437 102.422 104.464 102.406L117.914 94.1172L116.597 109.797Z" fill="#4F6D5E"/>
<path opacity="0.4" d="M116.597 109.797L104.464 102.718C104.437 102.702 104.415 102.679 104.399 102.652C104.383 102.625 104.375 102.594 104.375 102.562C104.375 102.531 104.383 102.5 104.399 102.472C104.415 102.445 104.437 102.422 104.464 102.406L117.914 94.1172L116.597 109.797Z" fill="black"/>
<path d="M116.6 109.796L130.127 101.963V98.4023L116.6 106.203V109.796Z" fill="#4F6D5E"/>
<path opacity="0.2" d="M116.6 109.796L130.127 101.963V98.4023L116.6 106.203V109.796Z" fill="black"/>
<path d="M127.485 102.511L122.144 105.597C121.79 105.803 121.5 105.597 121.5 105.109C121.503 104.868 121.563 104.631 121.675 104.418C121.787 104.204 121.948 104.02 122.144 103.881L127.485 100.798C127.839 100.593 128.129 100.798 128.129 101.283C128.125 101.524 128.065 101.76 127.953 101.973C127.841 102.187 127.681 102.371 127.485 102.511Z" fill="#E6E6E6"/>
<path d="M120.713 105.565C120.699 105.823 120.625 106.074 120.496 106.298C120.367 106.522 120.187 106.712 119.97 106.854C119.56 107.091 119.23 106.896 119.23 106.425C119.244 106.168 119.318 105.917 119.446 105.693C119.575 105.469 119.754 105.278 119.97 105.137C120.381 104.9 120.713 105.091 120.713 105.565Z" fill="#E6E6E6"/>
<path d="M116.597 106.203L104.51 100.523C104.481 100.507 104.457 100.484 104.44 100.456C104.423 100.428 104.414 100.396 104.414 100.363C104.414 100.331 104.423 100.299 104.44 100.27C104.457 100.242 104.481 100.219 104.51 100.204L117.471 92.4954C117.544 92.4512 117.627 92.4261 117.712 92.4224C117.798 92.4186 117.882 92.4364 117.959 92.4741L130.138 98.4025L116.597 106.203Z" fill="#4F6D5E"/>
<path d="M105.289 100.887V102.416L115.302 108.079V105.594L105.289 100.887Z" fill="#F5F5F5"/>
<path d="M115.303 108.078L116.598 107.271V106.203L115.303 105.594V108.078Z" fill="#E0E0E0"/>
<path d="M132.706 105.084C132.706 105.084 127.397 106.228 126.905 106.348C126.413 106.468 123.847 107.272 121.734 106.808L126.951 103.8C126.951 103.8 124.29 103.148 124.672 102.32C124.817 102.005 129.769 102.175 129.769 102.175L131.372 101.227C131.372 101.227 134.211 101.591 132.706 105.084Z" fill="#D9A1A1"/>
<path d="M104.41 99.0518V95.1055H126.467C126.545 95.1055 128.913 96.3372 129.961 96.8751C130.008 96.9016 130.047 96.9401 130.074 96.9868C130.102 97.0335 130.116 97.0865 130.116 97.1406C130.116 97.1947 130.102 97.2478 130.074 97.2944C130.047 97.3411 130.008 97.3796 129.961 97.406L116.89 104.796C116.798 104.849 116.695 104.878 116.59 104.881C116.484 104.884 116.379 104.861 116.285 104.814L104.41 99.0518Z" fill="#4F6D5E"/>
<path opacity="0.4" d="M104.41 99.0518V95.1055H126.467C126.545 95.1055 128.913 96.3372 129.961 96.8751C130.008 96.9016 130.047 96.9401 130.074 96.9868C130.102 97.0335 130.116 97.0865 130.116 97.1406C130.116 97.1947 130.102 97.2478 130.074 97.2944C130.047 97.3411 130.008 97.3796 129.961 97.406L116.89 104.796C116.798 104.849 116.695 104.878 116.59 104.881C116.484 104.884 116.379 104.861 116.285 104.814L104.41 99.0518Z" fill="black"/>
<path d="M116.6 103.87L129.115 96.8337V95.3047L116.6 101.962V103.87Z" fill="#E0E0E0"/>
<path d="M104.41 99.0518L107.681 97.1371L104.41 95.1055V99.0518Z" fill="#4F6D5E"/>
<path opacity="0.6" d="M104.41 99.0518L107.681 97.1371L104.41 95.1055V99.0518Z" fill="black"/>
<path d="M106.475 96.3867V98.567L116.597 103.872V101.965L106.475 96.3867Z" fill="#F5F5F5"/>
<path d="M104.41 95.1038L116.178 102.119C116.306 102.196 116.452 102.24 116.602 102.244C116.751 102.248 116.899 102.214 117.031 102.144L130.007 95.348C130.052 95.3229 130.091 95.2863 130.118 95.2419C130.145 95.1975 130.161 95.1468 130.162 95.0947C130.164 95.0426 130.152 94.9909 130.128 94.9447C130.104 94.8985 130.068 94.8594 130.024 94.8313L118.185 87.1367L104.41 95.1038Z" fill="#4F6D5E"/>
<path d="M116.597 100.89L104.464 93.8116C104.437 93.7956 104.415 93.7729 104.399 93.7456C104.383 93.7183 104.375 93.6873 104.375 93.6558C104.375 93.6243 104.383 93.5934 104.399 93.5661C104.415 93.5388 104.437 93.516 104.464 93.5001L117.914 85.2109L116.597 100.89Z" fill="#4F6D5E"/>
<path opacity="0.4" d="M116.597 100.89L104.464 93.8116C104.437 93.7956 104.415 93.7729 104.399 93.7456C104.383 93.7183 104.375 93.6873 104.375 93.6558C104.375 93.6243 104.383 93.5934 104.399 93.5661C104.415 93.5388 104.437 93.516 104.464 93.5001L117.914 85.2109L116.597 100.89Z" fill="black"/>
<path d="M116.6 100.89L130.127 93.0606V89.5L116.6 97.3007V100.89Z" fill="#4F6D5E"/>
<path opacity="0.2" d="M116.6 100.89L130.127 93.0606V89.5L116.6 97.3007V100.89Z" fill="black"/>
<path d="M127.485 93.6262L122.144 96.709C121.79 96.9143 121.5 96.709 121.5 96.2241C121.503 95.9831 121.563 95.7464 121.675 95.533C121.787 95.3196 121.948 95.1356 122.144 94.9959L127.485 91.9096C127.839 91.7079 128.129 91.9096 128.129 92.398C128.125 92.6388 128.065 92.8753 127.953 93.0886C127.841 93.3018 127.681 93.4859 127.485 93.6262Z" fill="#E6E6E6"/>
<path d="M120.713 96.659C120.7 96.9166 120.626 97.1674 120.496 97.3908C120.367 97.6141 120.187 97.8036 119.97 97.9438C119.56 98.1809 119.23 97.9898 119.23 97.5155C119.244 97.2583 119.318 97.0079 119.447 96.7847C119.575 96.5614 119.755 96.3717 119.97 96.2307C120.381 95.9936 120.713 96.1847 120.713 96.659Z" fill="#E6E6E6"/>
<path d="M116.596 97.299L104.509 91.6361C104.48 91.6202 104.456 91.5968 104.44 91.5685C104.423 91.5402 104.414 91.5079 104.414 91.475C104.414 91.4422 104.423 91.4099 104.44 91.3816C104.456 91.3532 104.48 91.3299 104.509 91.314L117.47 83.6053C117.545 83.5644 117.629 83.543 117.714 83.543C117.8 83.543 117.884 83.5644 117.959 83.6053L130.137 89.5337L116.596 97.299Z" fill="#4F6D5E"/>
<path d="M105.289 91.9844V93.5134L115.302 99.1763V96.6917L105.289 91.9844Z" fill="#F5F5F5"/>
<path d="M115.303 99.176L116.598 98.3655V97.3002L115.303 96.6914V99.176Z" fill="#E0E0E0"/>
</svg>
